<?xml version="1.0" standalone="no"?>
<!DOCTYPE svg PUBLIC "-//W3C//DTD SVG 20010904//EN"
 "http://www.w3.org/TR/2001/REC-SVG-20010904/DTD/svg10.dtd">
<svg version="1.0" xmlns="http://www.w3.org/2000/svg"
 width="1920.000000pt" height="1920.000000pt" viewBox="0 0 1920.000000 1920.000000"
 preserveAspectRatio="xMidYMid meet">

<g transform="translate(0.000000,1920.000000) scale(0.100000,-0.100000)"
fill="rgba(128, 128, 128, 0.5)" stroke="none">
<path d="M0 9600 l0 -9600 9600 0 9600 0 0 9600 0 9600 -9600 0 -9600 0 0
-9600z m7937 3114 c-3 -3 -12 -4 -19 -1 -8 3 -5 6 6 6 11 1 17 -2 13 -5z
m-3216 -77 c28 -15 54 -40 73 -70 26 -42 30 -59 34 -149 l5 -102 -27 29 -26
30 6 -30 c25 -118 74 -220 143 -296 l50 -56 -40 -41 c-21 -23 -39 -46 -39 -52
0 -15 -16 -12 -30 5 -19 23 -33 18 -26 -11 5 -17 1 -33 -13 -49 l-19 -25 -38
27 c-210 147 -283 183 -341 168 l-28 -7 25 -13 25 -14 -28 -1 c-15 0 -61 -14
-103 -32 -72 -30 -76 -31 -108 -16 -100 48 -81 233 31 307 28 19 59 31 77 30
17 0 25 -3 19 -6 -15 -6 -17 -33 -3 -33 6 0 10 5 10 10 0 16 43 12 68 -6 16
-11 32 -14 50 -9 15 4 38 9 51 11 30 4 37 12 24 25 -7 7 -15 6 -24 -4 -8 -7
-20 -12 -27 -9 -17 5 -15 32 3 32 8 0 15 5 15 11 0 5 -4 8 -8 5 -4 -2 -9 18
-10 45 -1 33 -11 63 -28 90 -37 59 -40 96 -12 148 32 59 74 81 159 81 50 0 77
-6 110 -23z m3298 -71 c19 -18 33 -46 40 -75 14 -63 24 -161 16 -161 -3 0 -14
20 -25 45 -11 25 -22 45 -26 45 -4 0 -4 -22 0 -50 4 -27 2 -57 -3 -67 -17 -31
-61 -174 -61 -199 0 -28 25 -42 49 -27 9 6 23 28 31 50 8 22 21 48 29 57 15
17 61 22 61 6 0 -5 -4 -10 -10 -10 -5 0 -10 -5 -10 -12 0 -6 3 -9 6 -5 4 3 13
-1 21 -9 19 -19 30 -10 13 11 -7 9 -11 17 -8 20 7 7 182 -50 217 -71 38 -23
67 -65 76 -115 21 -114 -104 -250 -204 -224 -14 4 -75 10 -136 14 l-110 6 80
21 c44 11 78 24 75 29 -7 14 -145 7 -214 -11 -77 -19 -112 -42 -161 -104 -22
-29 -79 -83 -127 -121 -84 -66 -106 -80 -93 -59 3 6 1 10 -4 10 -20 0 -11 21
29 64 22 24 40 46 40 50 0 9 -48 -19 -86 -49 l-30 -25 -34 35 -34 35 31 33
c17 17 36 42 43 55 11 23 11 23 -12 11 -13 -7 -38 -24 -56 -37 -26 -20 -38
-23 -50 -15 -10 5 -17 15 -17 21 0 6 31 37 70 69 179 150 264 322 265 531 0
88 15 133 49 152 11 5 26 7 34 4 10 -4 16 5 21 31 10 53 54 77 129 72 46 -3
63 -9 86 -31z m-2123 -348 c-159 -220 -348 -488 -491 -697 -49 -73 -110 -161
-135 -195 -67 -94 -108 -155 -220 -321 -159 -236 -165 -244 -171 -244 -3 -1
-19 10 -35 24 -16 14 -32 25 -37 25 -13 0 15 -37 40 -52 l23 -14 -46 -63 c-25
-35 -74 -104 -108 -155 -35 -50 -123 -178 -196 -284 l-132 -193 20 -22 c22
-24 282 -413 407 -607 66 -104 288 -436 463 -695 22 -33 188 -283 369 -555
291 -437 405 -606 574 -850 203 -292 247 -355 296 -425 31 -44 94 -129 139
-190 45 -60 81 -111 79 -113 -2 -2 -27 9 -57 24 -199 101 -770 340 -856 359
-38 8 -53 26 -232 295 -68 102 -146 217 -175 255 -97 132 -201 280 -283 401
-79 116 -82 124 -82 178 0 31 -3 56 -8 56 -4 0 -16 -11 -26 -25 l-18 -25 -19
24 c-11 13 -19 29 -19 36 0 22 -53 120 -65 120 -7 0 -50 57 -96 128 -175 266
-698 1058 -712 1077 -14 19 -20 14 -138 -97 l-124 -116 0 -660 c0 -750 -9
-676 91 -729 30 -15 54 -31 54 -34 0 -3 -63 -59 -141 -125 -235 -199 -243
-205 -364 -314 -64 -58 -140 -125 -167 -150 l-51 -45 6 430 c6 329 11 1573 7
1724 0 16 -24 46 -75 94 l-76 71 64 65 c77 79 131 156 121 174 -19 31 -91 116
-132 154 l-46 42 60 63 c106 110 96 27 95 774 l-1 658 -32 34 c-18 18 -59 51
-91 71 l-58 39 43 25 c93 54 211 156 436 374 129 125 241 232 249 236 12 8 14
-97 13 -815 -1 -453 -1 -916 -1 -1030 l1 -208 41 -20 c23 -12 42 -20 44 -18 1
2 22 35 45 73 24 39 70 111 104 162 34 50 73 111 88 135 36 59 193 306 253
400 50 78 68 91 79 62 3 -9 13 -14 21 -10 8 3 21 -2 30 -10 8 -8 19 -13 24
-10 5 3 14 -1 21 -9 7 -8 18 -15 26 -15 7 0 19 -8 26 -17 7 -10 29 -26 48 -36
19 -10 51 -31 70 -48 19 -17 36 -26 38 -20 4 11 -35 50 -50 51 -4 0 -21 13
-37 28 -24 22 -28 31 -19 40 9 9 9 12 0 12 -7 0 -12 -4 -12 -10 0 -14 -27 -13
-36 2 -4 6 1 17 11 24 17 12 14 19 -39 99 l-57 85 20 37 c10 21 48 81 83 134
34 53 104 160 153 238 50 77 131 200 180 273 l90 132 250 92 c419 154 578 214
583 219 3 3 12 5 19 5 9 0 -3 -24 -31 -62z m773 -273 c199 -29 342 -82 501
-186 187 -121 354 -341 455 -601 81 -209 90 -260 90 -518 -1 -235 -3 -255 -56
-450 -17 -66 -24 -79 -32 -65 -14 25 -9 199 7 268 11 47 11 55 0 46 -7 -6 -20
-33 -29 -60 -25 -74 -39 -74 -31 0 4 34 10 69 13 77 11 29 -19 13 -33 -18 -14
-31 -14 -26 -9 77 3 61 7 169 10 240 l4 130 -18 -75 c-10 -41 -35 -130 -54
-197 -20 -67 -39 -144 -43 -170 -8 -65 11 -160 53 -268 48 -120 50 -184 9
-244 l-29 -42 -30 68 c-51 115 -88 163 -151 196 l-30 14 45 29 c29 19 39 29
28 32 -15 3 -208 -37 -254 -53 -11 -4 7 18 40 49 33 30 57 56 52 56 -37 1
-261 -146 -362 -239 -22 -20 -51 -46 -64 -56 l-24 -20 8 25 c4 14 18 39 31 57
13 17 24 35 24 39 0 14 -36 -26 -90 -99 -72 -100 -117 -130 -189 -124 -37 3
-58 10 -67 22 -21 28 -17 119 5 163 22 42 147 166 269 266 45 37 82 70 82 72
0 7 -130 -76 -209 -134 -40 -30 -102 -83 -137 -118 -38 -39 -64 -59 -67 -51
-8 19 -27 -13 -27 -45 0 -14 -3 -33 -6 -42 -9 -23 -26 -20 -19 4 3 11 2 20 -3
20 -5 0 -14 18 -21 39 -14 48 -116 140 -261 235 -181 120 -174 109 64 -95 132
-113 147 -133 153 -196 10 -99 -35 -150 -126 -140 -48 5 -123 52 -127 79 -3
21 -54 96 -88 127 -40 38 -31 20 29 -55 30 -37 52 -70 50 -72 -2 -3 -44 29
-91 69 -210 178 -293 243 -351 272 -56 29 -57 19 -4 -29 87 -78 85 -86 -18
-54 -48 15 -112 31 -142 35 l-54 7 25 -19 c14 -11 36 -24 49 -28 24 -7 24 -8
-11 -25 -38 -18 -128 -80 -128 -88 0 -2 7 -1 16 2 13 5 11 -2 -6 -31 -39 -64
-76 -137 -84 -163 -5 -18 -9 -21 -13 -10 -3 8 -17 39 -30 68 -33 69 -28 98 32
232 44 95 49 113 53 196 4 80 0 109 -32 239 -21 84 -37 173 -37 206 l-1 60
108 112 c113 117 214 235 214 249 0 16 -19 7 -85 -43 -37 -29 -64 -46 -60 -38
24 39 422 620 452 658 19 25 47 51 63 58 54 22 177 53 267 67 123 19 401 20
532 1z m3103 -833 c239 -240 266 -276 247 -330 -13 -37 -463 -472 -489 -472
-25 0 -74 43 -302 262 -221 212 -220 210 -169 290 38 60 449 478 470 478 9 0
118 -103 243 -228z m2948 58 c0 -6 -33 -10 -79 -10 -44 0 -83 5 -86 10 -4 6
25 10 79 10 51 0 86 -4 86 -10z m958 1 c9 -5 2 -8 -20 -9 -23 -1 -28 2 -18 8
18 12 22 12 38 1z m200 -6 c3 -3 -24 -4 -59 -4 -48 1 -57 3 -34 8 31 8 84 5
93 -4z m851 0 c2 -3 -40 -5 -95 -4 -54 0 -91 4 -81 8 19 7 168 4 176 -4z
m-2236 -2 c-7 -2 -21 -2 -30 0 -10 3 -4 5 12 5 17 0 24 -2 18 -5z m44 1 c-3
-3 -12 -4 -19 -1 -8 3 -5 6 6 6 11 1 17 -2 13 -5z m1931 -1 c-21 -2 -55 -2
-75 0 -21 2 -4 4 37 4 41 0 58 -2 38 -4z m840 0 c-15 -2 -42 -2 -60 0 -18 2
-6 4 27 4 33 0 48 -2 33 -4z m493 -84 c71 -50 129 -93 129 -94 0 -4 -257 -185
-262 -185 -2 0 -1 22 0 50 l4 50 -159 0 c-159 1 -1755 7 -1783 7 -8 0 -823 -1
-1809 -4 l-1795 -4 -87 87 c-49 48 -85 92 -82 97 3 6 1087 8 2852 6 l2846 -4
3 43 c2 23 6 42 8 42 3 0 64 -41 135 -91z m-11210 -32 c26 -39 44 -75 40 -79
-10 -11 -70 8 -93 29 -11 10 -25 18 -31 19 -7 0 -18 2 -25 2 -16 2 35 102 52
102 6 0 32 -33 57 -73z m4499 34 c0 -6 -28 -34 -63 -63 -35 -29 -72 -66 -83
-83 l-19 -30 -549 0 -549 0 -22 87 -21 87 35 4 c82 9 1271 7 1271 -2z m-5913
-303 c-3 -8 -6 -5 -6 6 -1 11 2 17 5 13 3 -3 4 -12 1 -19z m1977 -103 c19
-136 27 -208 23 -212 -3 -2 -8 5 -12 16 -11 37 -28 24 -21 -16 3 -21 8 -56 11
-78 6 -40 6 -39 -23 20 -58 119 -83 128 -52 19 11 -38 20 -87 19 -109 l-1 -40
-9 39 c-16 68 -21 54 -14 -39 3 -49 2 -110 -3 -135 l-8 -45 -22 90 c-28 117
-42 214 -42 297 0 62 4 76 49 160 26 51 57 108 67 125 l19 33 6 -43 c4 -23 10
-60 13 -82z m6336 -218 c0 -2 -12 -28 -27 -58 -41 -80 -37 -148 26 -396 27
-110 66 -254 85 -320 19 -65 49 -174 66 -242 34 -134 47 -165 93 -224 22 -29
27 -41 18 -47 -9 -5 -11 -18 -6 -39 4 -18 3 -31 -3 -31 -18 0 -99 96 -113 133
-7 20 -17 37 -21 37 -12 0 -10 -6 12 -47 11 -21 20 -47 20 -59 0 -12 8 -32 19
-45 10 -13 20 -29 22 -36 2 -7 30 -39 62 -72 63 -64 117 -96 185 -107 23 -4
42 -8 42 -10 0 -1 -9 -18 -19 -36 -11 -18 -34 -74 -51 -125 -32 -90 -32 -92
-16 -140 8 -26 33 -118 55 -203 86 -341 138 -451 276 -591 l65 -67 -373 -4
c-204 -2 -374 -3 -375 -2 -2 1 14 26 36 56 54 70 60 89 63 192 3 82 2 89 -20
106 -31 23 -37 80 -9 88 24 6 23 22 -1 22 -21 0 -33 29 -75 189 -14 51 -27 96
-30 98 -3 3 -31 -15 -63 -39 -32 -25 -95 -70 -140 -100 -44 -31 -111 -81 -147
-112 -37 -31 -68 -56 -70 -56 -2 0 -88 63 -191 140 -103 78 -189 139 -190 138
-22 -24 -195 -498 -195 -535 0 -18 7 -50 15 -70 8 -19 15 -39 15 -44 0 -5 -22
-9 -49 -9 -103 0 -528 -70 -607 -101 -50 -18 -44 -7 53 99 140 152 174 201
247 353 62 129 146 350 146 383 0 23 -53 138 -73 158 -15 15 -12 18 54 38 39
12 81 31 93 43 23 23 104 240 127 339 l13 56 43 -46 c23 -25 45 -43 48 -41 5
6 -49 138 -85 210 -22 41 -22 44 -4 54 42 24 72 72 117 184 70 175 69 171 5
204 -29 15 -59 27 -65 27 -25 0 -23 22 4 42 78 60 214 204 228 242 21 57 44
256 33 279 -5 10 -44 45 -86 78 -42 34 -79 63 -81 65 -2 2 176 4 397 4 221 0
402 -1 402 -3z m-2940 -367 c79 -93 255 -284 428 -463 57 -59 102 -112 100
-116 -2 -5 -52 -50 -113 -101 -255 -213 -297 -250 -609 -515 -32 -27 -88 -74
-125 -103 -144 -116 -141 -112 -141 -201 l0 -79 35 -21 c19 -11 88 -60 152
-109 65 -49 127 -94 139 -100 19 -10 35 4 175 164 85 97 166 191 180 210 l26
34 110 -137 c60 -76 113 -144 117 -151 10 -16 -22 -50 -219 -235 -77 -73 -152
-147 -168 -166 -15 -19 -61 -69 -102 -113 l-76 -78 -157 107 c-161 111 -253
170 -474 308 l-128 79 6 466 c3 256 9 484 14 506 18 79 23 207 9 254 -7 25
-13 77 -13 115 l-1 70 92 60 c51 33 145 92 209 130 63 39 188 116 277 172 89
57 167 102 172 102 6 0 44 -40 85 -89z m4264 -187 c61 -62 113 -113 116 -113
4 0 119 84 256 186 l249 186 25 -30 c14 -17 62 -92 108 -167 79 -129 84 -140
97 -225 12 -86 28 -126 45 -115 5 3 6 14 3 25 -6 21 5 24 45 14 12 -4 22 -11
22 -16 0 -6 41 -88 92 -182 51 -94 112 -209 136 -255 l44 -84 -16 -36 c-53
-112 -365 -593 -399 -615 -12 -8 -23 -7 -38 2 -11 7 -23 12 -24 10 -2 -2 -23
-44 -46 -93 -38 -82 -42 -88 -52 -67 -17 38 -32 19 -37 -49 -6 -72 -13 -88
-83 -179 -27 -35 -51 -70 -54 -77 -3 -7 -10 -13 -15 -13 -12 0 -237 154 -319
217 -30 24 -58 43 -62 43 -4 0 -7 -83 -7 -185 0 -158 -2 -185 -15 -185 -8 0
-15 -6 -15 -14 0 -8 7 -16 15 -20 13 -4 15 -36 15 -201 0 -107 -2 -195 -5
-195 -9 0 -233 200 -237 212 -3 7 -10 8 -17 3 -11 -6 -13 -61 -9 -288 l5 -280
-66 -72 c-36 -40 -67 -71 -69 -70 -2 2 -3 286 -3 633 l1 629 -77 69 c-43 37
-80 70 -83 72 -3 2 23 29 58 59 82 73 96 100 87 171 -4 30 -9 60 -11 67 -3 7
7 10 31 7 43 -5 46 11 8 51 -27 28 -28 31 -28 150 0 67 -4 128 -8 135 -9 14 9
23 48 26 32 1 32 4 -7 37 l-33 27 0 287 0 288 -106 100 -105 101 145 143 146
143 70 -77 c39 -43 119 -128 179 -190z m1819 50 c83 -90 155 -163 161 -163 10
0 149 104 392 294 48 38 95 69 103 70 9 1 29 -21 46 -48 16 -26 61 -95 99
-153 70 -106 95 -173 96 -253 1 -42 26 -94 34 -70 3 8 6 24 8 34 2 11 8 21 13
22 20 6 43 -24 102 -136 33 -63 97 -185 143 -270 l83 -155 -54 -104 c-47 -91
-102 -177 -312 -489 -46 -70 -50 -73 -83 -70 -39 3 -44 -3 -91 -107 l-27 -60
-11 50 -11 50 -13 -90 c-12 -85 -16 -95 -79 -192 -43 -66 -72 -101 -82 -99
-15 3 -212 134 -318 213 -37 27 -59 38 -64 30 -3 -6 -7 -92 -8 -191 -1 -100
-2 -185 -2 -191 -1 -5 3 -102 7 -215 7 -199 7 -204 -11 -190 -68 53 -224 193
-224 201 0 5 -7 9 -15 9 -9 0 -15 -6 -14 -12 1 -7 1 -136 0 -286 l-1 -273 -67
-74 c-38 -40 -70 -73 -73 -74 -3 -1 -5 286 -5 637 l0 637 -40 40 c-22 23 -58
55 -80 72 l-40 32 72 69 c78 75 90 103 80 189 -5 45 -5 45 23 40 15 -4 30 -4
33 0 3 3 -10 28 -30 57 l-35 51 3 110 c2 61 0 116 -5 123 -11 19 -1 25 39 26
l34 1 -35 36 -34 35 1 282 c2 242 0 284 -14 305 -9 14 -57 60 -107 102 l-90
78 146 144 147 144 29 -28 c17 -15 98 -101 181 -190z m-4906 -33 c51 -47 93
-88 93 -92 0 -4 -26 -32 -58 -62 l-59 -56 -2 -177 c-1 -98 -4 -179 -6 -182 -2
-2 -12 13 -21 33 -10 20 -21 36 -26 36 -15 0 -8 -26 16 -59 14 -19 29 -59 35
-96 l11 -64 -45 -91 c-45 -90 -45 -111 0 -66 14 14 27 21 30 16 3 -5 5 -118 5
-252 -1 -483 -5 -436 33 -472 18 -17 56 -53 86 -80 l54 -49 -144 -139 -143
-138 -46 43 c-46 45 -218 190 -280 239 l-35 26 31 34 32 33 5 244 c4 209 7
245 21 253 20 11 20 32 1 48 -16 13 -21 90 -7 90 5 0 19 -11 32 -25 13 -14 30
-25 37 -25 25 0 -5 39 -45 58 l-37 17 4 361 4 360 -49 42 -48 43 100 92 c54
50 130 122 169 158 l69 67 46 -41 c25 -23 87 -80 137 -127z m-2266 -72 c7 -27
16 -48 19 -48 4 0 12 24 17 53 8 41 9 25 5 -83 -6 -166 3 -201 68 -279 33 -40
48 -65 44 -76 -5 -12 -9 -13 -14 -4 -6 8 -13 2 -25 -20 -9 -18 -40 -59 -68
-90 -143 -159 -152 -171 -129 -171 11 0 89 84 152 163 55 69 74 75 45 14 -20
-43 -168 -203 -206 -222 -48 -26 -91 -18 -186 32 -75 40 -98 47 -160 51 -40 3
-73 9 -73 14 0 6 -7 8 -15 4 -8 -3 -15 -2 -15 3 0 14 77 34 105 27 20 -5 26
-3 22 6 -3 9 -21 13 -56 12 -68 -2 -166 -50 -216 -105 -43 -48 -84 -132 -91
-186 -5 -35 -3 -34 25 25 16 34 32 62 34 62 2 0 2 -17 0 -37 l-4 -38 26 51
c13 27 39 63 57 80 18 16 24 19 14 7 -40 -48 -64 -183 -32 -183 7 0 16 12 19
28 3 15 13 36 21 47 15 19 16 19 6 -8 -16 -45 -12 -108 12 -165 l22 -53 -29
-24 c-17 -13 -33 -24 -36 -25 -3 0 -12 19 -19 43 -17 59 -49 118 -49 92 0 -11
6 -31 14 -45 19 -34 20 -111 1 -104 -8 3 -26 -10 -44 -31 -16 -20 -32 -33 -35
-28 -3 4 -10 33 -16 63 -6 30 -17 78 -25 105 -14 50 -14 50 -15 14 -1 -20 6
-56 14 -79 21 -59 20 -94 -2 -86 -11 5 -27 -5 -49 -30 -18 -19 -38 -33 -44
-29 -5 3 -11 27 -11 53 -2 32 -3 38 -6 17 -7 -54 -10 -56 -46 -35 l-33 20 -37
-31 c-20 -17 -37 -29 -37 -27 -1 2 -3 56 -5 120 -4 120 -12 159 -26 122 -4
-11 -2 -61 3 -111 6 -50 8 -103 4 -118 l-7 -27 -39 36 c-45 40 -47 41 -74 21
-11 -8 -23 -15 -28 -15 -13 0 -9 83 7 136 18 58 17 54 6 54 -14 0 -39 -93 -34
-127 3 -16 -3 -47 -12 -69 l-16 -39 -22 36 c-12 20 -30 44 -40 54 -16 16 -18
28 -12 84 4 36 12 69 17 72 7 4 7 9 0 13 -19 12 -34 -24 -38 -94 -2 -43 -10
-80 -21 -96 l-16 -25 -38 43 c-40 45 -42 55 -30 131 4 26 4 47 0 47 -9 0 -14
-15 -29 -92 -6 -32 -13 -58 -15 -58 -1 0 -17 12 -34 27 -30 26 -46 84 -19 67
8 -5 9 -2 5 10 -4 9 0 28 9 41 18 28 12 103 -12 151 -15 28 -15 28 6 9 11 -10
23 -36 26 -57 6 -31 9 -36 21 -27 17 15 8 88 -18 140 -21 42 -81 97 -121 111
-15 5 -28 14 -28 19 0 9 -56 4 -127 -11 -24 -6 -80 -28 -123 -50 -123 -62
-172 -52 -262 51 -101 115 -152 189 -166 240 -8 32 -6 37 44 90 58 61 69 91
80 209 3 41 10 80 14 85 4 6 11 26 15 45 8 39 40 106 54 115 6 3 8 -9 4 -30
-5 -33 10 -51 20 -22 2 6 7 -33 11 -88 9 -129 23 -211 46 -255 43 -84 159
-150 263 -150 29 0 87 12 131 25 84 27 116 28 44 1 -30 -11 -34 -15 -13 -11
65 12 215 95 280 157 36 33 65 57 65 53 0 -16 -84 -141 -118 -177 -49 -52 -36
-56 21 -6 27 22 50 38 53 36 10 -11 -56 -135 -87 -162 -19 -18 -28 -31 -21
-34 7 -2 21 7 32 20 14 16 22 20 28 11 4 -7 12 -9 18 -5 21 15 124 268 124
306 0 8 3 17 8 19 4 3 5 -16 4 -41 -7 -82 18 -33 34 69 14 85 34 133 49 117 4
-3 10 -28 14 -55 l7 -48 8 59 c6 42 14 65 29 77 23 19 42 25 33 10 -3 -5 3
-11 14 -14 17 -4 20 -14 20 -68 0 -67 9 -73 19 -12 4 24 12 38 21 38 8 0 14
-6 13 -12 -2 -7 1 -13 6 -13 5 0 11 -35 13 -77 2 -44 12 -93 21 -113 l17 -35
-4 70 c-4 66 -3 68 11 42 8 -16 30 -71 49 -123 40 -112 54 -141 90 -183 52
-62 64 -53 19 14 -25 36 -45 69 -45 73 0 4 5 0 10 -8 6 -10 7 -3 3 24 -7 43
-9 43 56 -1 55 -37 53 -27 -8 35 -31 32 -69 82 -85 112 l-29 55 57 -53 c101
-95 292 -166 447 -166 81 0 90 2 144 34 67 41 116 107 139 190 16 56 38 236
37 300 l-1 35 24 -40 c14 -22 31 -61 37 -87z m-141 -250 c-25 -58 -86 -127
-126 -144 -60 -25 -116 -16 -247 39 -31 13 -59 26 -61 28 -2 2 44 4 104 4 107
0 108 0 191 42 l83 43 -33 -34 c-18 -19 -55 -45 -82 -57 -26 -13 -47 -25 -45
-26 1 -2 31 7 67 19 49 17 75 33 114 74 27 28 51 52 52 53 1 1 -6 -18 -17 -41z
m-1824 -74 c43 -19 195 -25 274 -11 34 6 41 5 27 -3 -32 -21 -187 -70 -217
-70 -66 0 -139 48 -184 120 -42 66 -38 74 13 27 27 -25 66 -54 87 -63z m49 27
c31 -12 60 -21 65 -21 6 0 10 -4 10 -9 0 -11 -55 1 -101 23 -20 9 -49 31 -65
48 l-29 32 32 -26 c18 -15 58 -36 88 -47z m474 46 c-2 -1 -15 -11 -29 -22
l-25 -20 19 23 c11 12 24 22 29 22 6 0 8 -1 6 -3z m891 -422 c0 -7 -62 -45
-73 -45 -17 0 7 22 37 36 36 16 36 15 36 9z m504 -216 c-3 -5 -10 -7 -15 -3
-5 3 -7 10 -3 15 3 5 10 7 15 3 5 -3 7 -10 3 -15z m149 4 c-18 -6 -63 -43 -63
-51 0 -4 15 -7 33 -6 32 2 33 0 34 -39 2 -47 -13 -69 -60 -88 -18 -7 -49 -23
-69 -36 -74 -45 -419 -216 -425 -209 -3 3 -2 6 4 6 6 0 8 17 6 39 -2 24 1 42
8 47 9 5 10 1 6 -15 -5 -21 -4 -22 12 -7 9 8 17 25 18 38 1 12 -1 18 -5 13
-16 -22 -31 -14 -29 14 1 21 11 35 32 48 64 40 500 260 505 255 3 -2 0 -7 -7
-9z m-193 -18 c0 -7 -31 -34 -69 -58 -98 -64 -110 -70 -107 -53 1 8 8 21 15
30 12 14 11 16 -5 10 -10 -4 -26 -12 -34 -19 -28 -21 -123 -66 -111 -52 18 23
203 116 309 156 1 1 2 -6 2 -14z m-1995 -35 c23 -26 8 -26 -25 0 -18 14 -21
20 -9 20 9 0 24 -9 34 -20z m206 -87 c81 -53 86 -59 90 -103 3 -28 0 -35 -13
-34 -10 1 -17 -1 -16 -5 2 -19 -6 -19 -43 0 -113 57 -271 180 -254 197 6 6 52
-16 78 -37 9 -8 17 -9 17 -4 0 6 -10 17 -21 25 -12 8 -23 26 -25 41 l-3 27 62
-32 c34 -17 92 -50 128 -75z m-26 97 c3 -5 -1 -10 -9 -10 -9 0 -16 5 -16 10 0
6 4 10 9 10 6 0 13 -4 16 -10z m35 -20 c0 -5 6 -10 14 -10 8 0 14 -9 13 -19
-1 -17 -4 -18 -17 -8 -29 23 -39 47 -20 47 6 0 10 -4 10 -10z m69 -63 c0 -9
-2 -8 -6 1 -2 6 -10 9 -15 6 -7 -4 -8 -2 -4 5 9 13 26 5 25 -12z m1491 -41 c0
-2 -7 -7 -16 -10 -8 -3 -12 -2 -9 4 6 10 25 14 25 6z m-72 -48 c-41 -34 -59
-37 -21 -3 15 13 23 25 16 25 -6 0 -15 -4 -18 -10 -8 -13 -25 -13 -25 -1 0 11
24 18 58 17 21 -1 21 -3 -10 -28z m-190 -108 c7 -117 -27 -166 -47 -69 -14 64
1 132 27 127 13 -2 18 -16 20 -58z m-1018 25 c9 -11 11 -34 6 -77 -7 -71 -11
-77 -32 -57 -9 10 -15 36 -15 72 -1 75 13 96 41 62z m-200 -5 c0 -5 -4 -10
-10 -10 -5 0 -10 5 -10 10 0 6 5 10 10 10 6 0 10 -4 10 -10z m310 -42 c20 -34
25 -106 11 -158 -10 -37 -42 -32 -64 10 -30 58 -13 180 24 180 5 0 18 -15 29
-32z m806 11 c27 -30 24 -143 -5 -172 -10 -11 -26 -17 -34 -14 -28 11 -37 149
-11 185 19 27 26 27 50 1z m-670 -41 c19 -37 30 -148 20 -203 -6 -31 -10 -35
-29 -29 -45 13 -70 49 -75 108 -5 66 1 94 29 129 27 35 35 34 55 -5z m194 -33
c19 -39 25 -68 28 -140 1 -49 -1 -96 -6 -103 -13 -19 -109 -5 -133 19 -15 15
-19 34 -19 87 0 84 15 138 46 169 34 34 55 26 84 -32z m183 37 c48 -53 69
-212 34 -265 -15 -24 -24 -27 -71 -27 -74 0 -80 9 -74 123 5 94 14 124 51 165
25 27 39 28 60 4z m180 -22 c14 -26 17 -52 15 -104 -3 -60 -7 -71 -31 -92 -37
-31 -65 -31 -73 1 -3 14 -5 60 -3 103 6 124 52 170 92 92z m-659 -375 c6 -17
-9 -21 -19 -5 -12 19 -27 10 -22 -12 5 -19 -3 -29 -44 -56 -49 -32 -52 -33
-70 -16 -28 25 -23 47 14 69 57 35 131 45 141 20z m737 -58 c15 -20 24 -25 29
-17 5 9 15 8 39 -4 17 -9 43 -21 58 -27 27 -10 27 -10 8 10 -10 12 -23 21 -28
21 -13 0 -47 30 -47 41 0 9 52 -20 150 -83 89 -56 271 -164 320 -188 54 -27
147 -83 338 -202 78 -50 209 -120 290 -156 l147 -66 130 -5 c106 -5 137 -10
165 -26 108 -63 87 -241 -37 -322 -15 -10 -28 -13 -30 -8 -12 36 -50 80 -90
104 -27 16 -63 39 -81 50 l-32 20 -20 -21 c-11 -12 -23 -37 -26 -56 -8 -43 12
-62 66 -62 24 0 43 -7 54 -19 18 -20 14 -41 -7 -41 -22 0 -89 -63 -104 -97
-13 -32 -12 -36 12 -64 48 -58 24 -143 -54 -196 -64 -43 -202 -24 -254 35 -15
16 -16 20 -4 18 8 -1 22 -7 30 -14 22 -19 47 -4 47 29 0 16 5 29 11 29 7 0 9
-10 4 -27 -12 -45 -11 -58 5 -58 9 0 14 7 12 19 -2 10 1 15 6 12 14 -9 43 40
35 60 -4 12 -3 15 5 10 23 -14 12 23 -13 47 -14 12 -44 56 -66 97 -22 41 -38
63 -35 48 5 -22 3 -26 -9 -22 -10 4 -15 0 -15 -15 0 -12 -5 -21 -11 -21 -6 0
-8 9 -3 23 7 23 7 107 -1 115 -2 3 -12 -1 -21 -9 -15 -12 -16 -11 -10 8 5 16
2 25 -14 33 -28 15 -25 32 4 24 20 -5 24 -2 24 21 0 19 -5 25 -15 20 -10 -3
-13 -1 -10 9 8 19 -3 28 -18 16 -9 -8 -14 -6 -19 5 -3 9 0 15 9 15 25 0 17 17
-10 22 -17 4 -25 1 -25 -8 0 -17 -12 -18 -29 -1 -11 10 -13 10 -7 0 5 -9 0
-13 -12 -13 -11 0 -56 35 -101 77 -45 42 -106 95 -135 117 -30 23 -100 76
-157 119 -69 53 -103 84 -101 95 2 13 1 14 -6 3 -14 -19 -63 14 -55 37 4 13 3
14 -5 3 -7 -10 -39 8 -148 85 -136 97 -178 127 -327 229 -40 28 -74 55 -74 60
-1 6 -12 13 -25 17 -22 6 -22 6 3 7 15 1 32 -6 39 -14 7 -8 19 -15 27 -15 8 0
27 -9 43 -20 26 -19 28 -19 32 -2 3 10 -1 23 -9 30 -7 7 -13 10 -13 6 0 -3 -7
-1 -15 6 -20 16 -19 30 2 30 18 0 162 -79 303 -165 47 -29 101 -60 120 -69
l35 -17 -35 31 c-19 16 -71 56 -115 87 -44 31 -82 59 -85 63 -3 3 -33 27 -68
54 -34 26 -60 52 -57 57 4 5 -1 9 -9 9 -9 0 -16 4 -16 9 0 32 75 3 111 -42z
m-686 13 c-3 -5 -11 -10 -16 -10 -6 0 -7 5 -4 10 3 6 11 10 16 10 6 0 7 -4 4
-10z m-8 -35 c21 -9 40 -20 43 -26 9 -14 40 0 34 16 -3 7 3 15 13 17 19 4 63
-11 63 -21 -1 -12 -206 -126 -222 -124 -11 2 -18 -4 -18 -13 0 -24 -19 -6 -36
34 -11 28 -13 41 -5 55 13 19 8 21 -19 7 -12 -6 -21 -7 -25 0 -7 11 92 70 118
70 10 0 34 -7 54 -15z m480 -10 c0 -12 -3 -12 -16 -3 -9 7 -18 14 -20 15 -2 2
5 3 16 3 11 0 20 -7 20 -15z m-1397 -467 c0 -5 -5 -8 -11 -8 -5 0 -7 5 -4 10
11 18 -18 10 -41 -11 -18 -17 -21 -26 -13 -41 7 -14 6 -20 -6 -24 -14 -6 -13
-9 6 -22 16 -11 23 -12 29 -2 5 9 9 9 14 1 4 -6 13 -9 19 -5 7 3 -10 -15 -38
-40 -27 -24 -46 -48 -42 -52 4 -5 16 -3 25 2 65 41 132 74 132 66 0 -5 -10
-12 -21 -15 -16 -4 -20 -11 -16 -27 5 -21 -5 -29 -170 -133 -31 -20 -41 -32
-37 -44 5 -14 4 -15 -4 -4 -8 11 -14 10 -36 -4 -14 -10 -26 -26 -26 -36 0 -10
-4 -21 -10 -24 -12 -8 -47 -85 -61 -139 -14 -50 -13 -160 1 -186 8 -15 6 -21
-9 -29 -29 -16 -34 -40 -8 -34 17 4 19 2 7 -5 -8 -7 -14 -26 -13 -48 1 -21 -5
-44 -13 -51 -12 -12 -14 -12 -14 5 0 11 5 23 10 25 6 3 5 4 -2 3 -7 -1 -14
-18 -16 -38 -2 -29 1 -36 17 -41 14 -3 21 0 21 9 0 8 5 14 10 14 6 0 9 14 8
32 -1 18 3 33 10 36 18 6 14 22 -5 23 -18 1 -18 1 27 15 13 5 13 6 0 15 -10 6
-11 12 -5 17 6 4 11 26 11 49 1 23 7 56 14 73 10 23 10 34 1 43 -15 15 -15 50
1 41 8 -5 9 -2 5 10 -4 10 -3 15 4 11 5 -4 7 -16 4 -28 -6 -21 -5 -21 15 2 11
13 22 22 23 20 2 -2 0 -69 -3 -149 -6 -165 -20 -206 -87 -257 -33 -25 -44 -28
-114 -28 -92 0 -122 16 -157 88 -31 61 -32 138 -3 194 31 62 28 117 -8 154
l-29 29 38 -6 c36 -6 40 -4 51 20 17 36 -4 56 -68 67 -124 20 -163 5 -163 -64
0 -33 -3 -38 -17 -32 -80 34 -130 44 -118 25 14 -22 -33 -8 -57 18 -92 98 -64
248 54 297 56 23 353 32 321 10 -11 -7 -36 -16 -56 -20 -49 -10 -55 -21 -13
-29 57 -11 125 18 421 181 50 28 112 64 139 81 46 29 50 30 62 14 7 -9 14 -20
14 -24z m-160 -412 c0 -11 -19 -15 -25 -6 -3 5 1 10 9 10 9 0 16 -2 16 -4z
m2660 -16 c25 -25 25 -29 0 -23 -11 3 -17 9 -14 14 3 5 -2 9 -10 9 -8 0 -18 5
-21 10 -11 18 25 10 45 -10z m461 -30 c5 0 9 -4 9 -10 0 -13 -27 -13 -35 0 -3
6 -3 20 1 33 l8 22 4 -22 c2 -13 8 -23 13 -23z m-3117 5 c-4 -8 -8 -15 -10
-15 -2 0 -4 7 -4 15 0 8 4 15 10 15 5 0 7 -7 4 -15z m-28 -55 c-2 -32 -15 -54
-14 -24 0 11 -3 27 -7 37 -5 12 -3 17 8 17 10 0 14 -9 13 -30z m2767 -75 c3
-11 0 -33 -8 -50 l-13 -30 -1 31 c-1 17 -4 47 -8 65 -6 31 -5 32 9 18 8 -8 18
-24 21 -34z m77 -86 c0 -6 -4 -7 -10 -4 -5 3 -10 11 -10 16 0 6 5 7 10 4 6 -3
10 -11 10 -16z m-90 -46 c-11 -17 -11 -17 -6 0 3 10 6 24 7 30 0 9 2 9 5 0 3
-7 0 -20 -6 -30z m105 -11 c-3 -7 -1 -11 4 -8 5 3 16 -5 25 -19 16 -24 15 -25
-4 -25 -11 0 -20 5 -20 10 0 6 -4 10 -10 10 -5 0 -10 -8 -10 -18 0 -11 -7 -18
-19 -18 -11 0 -18 3 -15 7 2 4 -3 9 -11 13 -8 3 -15 10 -15 16 0 6 5 8 11 5 7
-5 9 4 5 26 -3 18 -3 36 0 40 8 13 64 -25 59 -39z m-25 -113 c0 -21 -1 -22
-23 -13 -9 3 -13 13 -10 24 6 24 33 15 33 -11z m95 1 c-3 -5 -10 -10 -16 -10
-5 0 -9 5 -9 10 0 6 7 10 16 10 8 0 12 -4 9 -10z"/>
<path d="M7937 12250 c3 -11 10 -23 16 -27 7 -4 8 0 4 11 -4 10 -7 22 -7 27 0
5 -4 9 -9 9 -5 0 -7 -9 -4 -20z"/>
<path d="M5035 11540 c-3 -5 -1 -10 4 -10 6 0 11 5 11 10 0 6 -2 10 -4 10 -3
0 -8 -4 -11 -10z"/>
<path d="M3750 11520 c0 -5 5 -10 11 -10 5 0 7 5 4 10 -3 6 -8 10 -11 10 -2 0
-4 -4 -4 -10z"/>
<path d="M3597 11254 c-4 -4 -7 -14 -7 -23 0 -11 3 -12 11 -4 6 6 10 16 7 23
-2 6 -7 8 -11 4z"/>
<path d="M4645 11120 c-3 -5 -2 -10 4 -10 5 0 13 5 16 10 3 6 2 10 -4 10 -5 0
-13 -4 -16 -10z"/>
<path d="M3320 11100 c-13 -8 -12 -10 3 -10 9 0 17 5 17 10 0 12 -1 12 -20 0z"/>
<path d="M3575 11010 c3 -5 11 -10 16 -10 6 0 7 5 4 10 -3 6 -11 10 -16 10 -6
0 -7 -4 -4 -10z"/>
<path d="M3636 10975 c4 -8 12 -15 20 -15 8 0 11 6 8 15 -4 8 -12 15 -20 15
-8 0 -11 -6 -8 -15z"/>
<path d="M3443 10895 c0 -14 3 -25 8 -25 5 0 9 9 9 19 0 11 -4 22 -9 25 -5 3
-8 -6 -8 -19z"/>
<path d="M4820 10880 c0 -5 5 -10 11 -10 5 0 7 5 4 10 -3 6 -8 10 -11 10 -2 0
-4 -4 -4 -10z"/>
<path d="M4885 10840 c3 -5 8 -10 11 -10 2 0 4 5 4 10 0 6 -5 10 -11 10 -5 0
-7 -4 -4 -10z"/>
<path d="M3315 10820 c-10 -17 12 -37 25 -24 8 8 6 15 -4 23 -10 9 -16 9 -21
1z"/>
<path d="M4490 10789 c0 -11 4 -18 10 -14 5 3 7 12 3 20 -7 21 -13 19 -13 -6z"/>
<path d="M4535 10800 c3 -5 8 -10 11 -10 2 0 4 5 4 10 0 6 -5 10 -11 10 -5 0
-7 -4 -4 -10z"/>
<path d="M4525 10717 c-4 -10 -5 -21 -1 -24 10 -10 18 4 13 24 -4 17 -4 17
-12 0z"/>
<path d="M4460 10685 c-8 -9 -8 -15 -2 -15 6 0 14 -9 17 -20 10 -31 21 -24 22
15 1 38 -15 46 -37 20z"/>
<path d="M3642 10670 c-36 -20 -28 -34 13 -24 16 4 25 13 25 25 0 10 -1 19 -2
18 -2 0 -18 -8 -36 -19z"/>
<path d="M3400 10670 c0 -5 5 -10 10 -10 6 0 10 5 10 10 0 6 -4 10 -10 10 -5
0 -10 -4 -10 -10z"/>
<path d="M4600 10653 c0 -13 5 -23 10 -23 13 0 13 11 0 30 -8 12 -10 11 -10
-7z"/>
<path d="M3700 10650 c0 -5 5 -10 11 -10 5 0 7 5 4 10 -3 6 -8 10 -11 10 -2 0
-4 -4 -4 -10z"/>
<path d="M3420 10611 c0 -17 18 -21 24 -6 3 9 0 15 -9 15 -8 0 -15 -4 -15 -9z"/>
<path d="M3295 10520 c3 -5 8 -10 11 -10 2 0 4 5 4 10 0 6 -5 10 -11 10 -5 0
-7 -4 -4 -10z"/>
<path d="M3400 10501 c0 -5 5 -13 10 -16 6 -3 10 -2 10 4 0 5 -4 13 -10 16 -5
3 -10 2 -10 -4z"/>
<path d="M3430 10499 c0 -5 5 -7 10 -4 6 3 10 8 10 11 0 2 -4 4 -10 4 -5 0
-10 -5 -10 -11z"/>
<path d="M3610 10490 c0 -5 5 -10 10 -10 6 0 10 5 10 10 0 6 -4 10 -10 10 -5
0 -10 -4 -10 -10z"/>
<path d="M4357 10493 c-12 -12 -7 -22 8 -17 8 4 15 10 15 15 0 11 -14 12 -23
2z"/>
<path d="M4390 10430 c0 -5 5 -10 10 -10 6 0 10 5 10 10 0 6 -4 10 -10 10 -5
0 -10 -4 -10 -10z"/>
<path d="M3390 10385 c-11 -13 -10 -14 4 -9 9 3 16 10 16 15 0 13 -6 11 -20
-6z"/>
<path d="M4230 10336 c0 -18 26 -40 34 -28 3 6 -1 13 -10 16 -8 3 -12 10 -9
16 3 5 1 10 -4 10 -6 0 -11 -6 -11 -14z"/>
<path d="M3390 10330 c0 -5 5 -10 10 -10 6 0 10 5 10 10 0 6 -4 10 -10 10 -5
0 -10 -4 -10 -10z"/>
<path d="M4150 10325 c-18 -21 -3 -32 16 -13 10 9 12 18 6 22 -5 3 -15 -1 -22
-9z"/>
<path d="M3590 10250 c0 -5 5 -10 10 -10 6 0 10 5 10 10 0 6 -4 10 -10 10 -5
0 -10 -4 -10 -10z"/>
<path d="M3615 10201 c-6 -11 9 -23 19 -14 9 9 7 23 -3 23 -6 0 -12 -4 -16 -9z"/>
<path d="M3800 10000 c0 -5 5 -10 11 -10 5 0 7 5 4 10 -3 6 -8 10 -11 10 -2 0
-4 -4 -4 -10z"/>
<path d="M3715 9980 c3 -5 8 -10 11 -10 2 0 4 5 4 10 0 6 -5 10 -11 10 -5 0
-7 -4 -4 -10z"/>
<path d="M3416 9964 c-9 -24 -7 -31 11 -38 20 -8 32 9 26 35 -6 23 -29 25 -37
3z"/>
<path d="M3780 9911 c0 -6 4 -13 10 -16 6 -3 7 1 4 9 -7 18 -14 21 -14 7z"/>
<path d="M3825 9899 c-10 -15 3 -25 16 -12 7 7 7 13 1 17 -6 3 -14 1 -17 -5z"/>
<path d="M3370 9830 c0 -5 7 -10 16 -10 8 0 12 5 9 10 -3 6 -10 10 -16 10 -5
0 -9 -4 -9 -10z"/>
<path d="M3635 9810 c-4 -6 -3 -14 0 -20 9 -15 35 -12 35 4 0 17 -27 29 -35
16z"/>
<path d="M3590 9795 c0 -8 7 -15 15 -15 8 0 15 7 15 15 0 8 -7 15 -15 15 -8 0
-15 -7 -15 -15z"/>
<path d="M3426 9781 c-3 -5 1 -14 8 -20 16 -13 32 2 21 19 -8 12 -22 13 -29 1z"/>
<path d="M3380 9733 c0 -13 5 -23 10 -23 13 0 13 11 0 30 -8 12 -10 11 -10 -7z"/>
<path d="M3660 9716 c0 -9 5 -16 10 -16 6 0 10 4 10 9 0 6 -4 13 -10 16 -5 3
-10 -1 -10 -9z"/>
<path d="M4230 9669 c0 -5 5 -7 10 -4 6 3 10 8 10 11 0 2 -4 4 -10 4 -5 0 -10
-5 -10 -11z"/>
<path d="M3267 9625 c-5 -10 0 -15 14 -15 12 0 19 5 17 12 -6 18 -25 20 -31 3z"/>
<path d="M3420 9630 c0 -5 5 -10 10 -10 6 0 10 5 10 10 0 6 -4 10 -10 10 -5 0
-10 -4 -10 -10z"/>
<path d="M4284 9628 c-11 -17 7 -28 22 -14 8 8 14 16 14 19 0 7 -31 4 -36 -5z"/>
<path d="M3460 9604 c0 -8 5 -12 10 -9 6 4 8 11 5 16 -9 14 -15 11 -15 -7z"/>
<path d="M3337 9593 c-12 -11 -8 -23 8 -23 8 0 15 7 15 15 0 16 -12 20 -23 8z"/>
<path d="M4294 9579 c-8 -14 18 -31 30 -19 9 9 0 30 -14 30 -5 0 -12 -5 -16
-11z"/>
<path d="M3400 9549 c0 -5 5 -7 10 -4 6 3 10 8 10 11 0 2 -4 4 -10 4 -5 0 -10
-5 -10 -11z"/>
<path d="M4575 9430 c-3 -5 -1 -10 4 -10 6 0 11 5 11 10 0 6 -2 10 -4 10 -3 0
-8 -4 -11 -10z"/>
<path d="M4516 9391 c-4 -7 -5 -15 -2 -18 9 -9 19 4 14 18 -4 11 -6 11 -12 0z"/>
<path d="M4715 9391 c-3 -5 -1 -12 5 -16 12 -7 30 2 30 16 0 12 -27 12 -35 0z"/>
<path d="M4585 9350 c3 -5 8 -10 11 -10 2 0 4 5 4 10 0 6 -5 10 -11 10 -5 0
-7 -4 -4 -10z"/>
<path d="M3685 9310 c-3 -5 -1 -10 4 -10 6 0 11 5 11 10 0 6 -2 10 -4 10 -3 0
-8 -4 -11 -10z"/>
<path d="M3690 9232 c0 -5 7 -13 16 -16 10 -4 14 -1 12 6 -5 15 -28 23 -28 10z"/>
<path d="M3741 9187 c-18 -18 -12 -28 9 -17 11 6 25 8 32 4 6 -4 9 -1 6 6 -5
17 -33 21 -47 7z"/>
<path d="M4600 9186 c0 -17 14 -29 23 -20 8 8 -3 34 -14 34 -5 0 -9 -6 -9 -14z"/>
<path d="M4890 9190 c0 -5 7 -10 16 -10 8 0 12 5 9 10 -3 6 -10 10 -16 10 -5
0 -9 -4 -9 -10z"/>
<path d="M3405 9170 c-3 -5 -1 -10 4 -10 6 0 11 5 11 10 0 6 -2 10 -4 10 -3 0
-8 -4 -11 -10z"/>
<path d="M3627 9163 c-12 -12 -7 -22 8 -17 8 4 15 10 15 15 0 11 -14 12 -23 2z"/>
<path d="M3340 9145 c0 -8 7 -15 15 -15 8 0 15 7 15 15 0 8 -7 15 -15 15 -8 0
-15 -7 -15 -15z"/>
<path d="M3436 9134 c-9 -22 -8 -24 9 -24 8 0 15 6 15 14 0 22 -17 28 -24 10z"/>
<path d="M3470 9145 c0 -5 5 -17 10 -25 5 -8 10 -10 10 -5 0 6 -5 17 -10 25
-5 8 -10 11 -10 5z"/>
<path d="M3685 9140 c4 -6 11 -8 16 -5 14 9 11 15 -7 15 -8 0 -12 -5 -9 -10z"/>
<path d="M3572 9118 c7 -19 38 -22 38 -4 0 10 -9 16 -21 16 -12 0 -19 -5 -17
-12z"/>
<path d="M4580 9119 c0 -5 5 -7 10 -4 6 3 10 8 10 11 0 2 -4 4 -10 4 -5 0 -10
-5 -10 -11z"/>
<path d="M3747 9093 c-12 -11 -8 -23 8 -23 8 0 15 7 15 15 0 16 -12 20 -23 8z"/>
<path d="M3530 9072 c0 -11 7 -18 20 -18 23 0 25 7 8 24 -17 17 -28 15 -28 -6z"/>
<path d="M4785 9079 c-4 -6 -5 -13 -2 -16 7 -7 27 6 27 18 0 12 -17 12 -25 -2z"/>
<path d="M3710 9066 c0 -9 5 -16 10 -16 6 0 10 4 10 9 0 6 -4 13 -10 16 -5 3
-10 -1 -10 -9z"/>
<path d="M3615 9050 c3 -5 8 -10 11 -10 2 0 4 5 4 10 0 6 -5 10 -11 10 -5 0
-7 -4 -4 -10z"/>
<path d="M3510 8999 c0 -5 5 -7 10 -4 6 3 10 8 10 11 0 2 -4 4 -10 4 -5 0 -10
-5 -10 -11z"/>
<path d="M3597 8981 c-3 -14 0 -21 9 -21 16 0 18 9 5 28 -6 10 -10 9 -14 -7z"/>
<path d="M3643 8980 c-1 -11 2 -20 7 -20 5 0 14 9 20 20 9 17 8 20 -8 20 -11
0 -18 -8 -19 -20z"/>
<path d="M3760 8990 c0 -5 4 -10 9 -10 6 0 13 5 16 10 3 6 -1 10 -9 10 -9 0
-16 -4 -16 -10z"/>
<path d="M3436 8981 c-4 -5 -2 -12 3 -15 5 -4 12 -2 15 3 4 5 2 12 -3 15 -5 4
-12 2 -15 -3z"/>
<path d="M3704 8956 c4 -41 18 -51 32 -25 18 33 17 36 -10 41 -20 4 -24 1 -22
-16z"/>
<path d="M3645 8940 c3 -5 8 -10 11 -10 2 0 4 5 4 10 0 6 -5 10 -11 10 -5 0
-7 -4 -4 -10z"/>
<path d="M3770 8940 c0 -5 5 -10 11 -10 5 0 7 5 4 10 -3 6 -8 10 -11 10 -2 0
-4 -4 -4 -10z"/>
<path d="M3555 8930 c-3 -5 1 -10 9 -10 9 0 16 5 16 10 0 6 -4 10 -9 10 -6 0
-13 -4 -16 -10z"/>
<path d="M3690 8895 c0 -8 6 -15 14 -15 22 0 28 17 10 24 -22 9 -24 8 -24 -9z"/>
<path d="M3770 8894 c0 -8 5 -12 10 -9 6 3 10 10 10 16 0 5 -4 9 -10 9 -5 0
-10 -7 -10 -16z"/>
<path d="M3567 8870 c-3 -11 -2 -20 2 -20 3 0 12 9 19 20 10 16 10 20 -2 20
-7 0 -16 -9 -19 -20z"/>
<path d="M5045 8870 c-3 -5 -1 -10 4 -10 6 0 11 5 11 10 0 6 -2 10 -4 10 -3 0
-8 -4 -11 -10z"/>
<path d="M3360 8856 c0 -9 -8 -13 -22 -10 -13 2 -17 2 -10 -2 6 -3 10 -10 6
-15 -10 -17 19 -9 32 9 16 21 17 32 4 32 -5 0 -10 -6 -10 -14z"/>
<path d="M3630 8849 c0 -5 5 -7 10 -4 6 3 10 8 10 11 0 2 -4 4 -10 4 -5 0 -10
-5 -10 -11z"/>
<path d="M3440 8805 c0 -5 5 -17 10 -25 5 -8 10 -10 10 -5 0 6 -5 17 -10 25
-5 8 -10 11 -10 5z"/>
<path d="M3646 8801 c-4 -5 -2 -12 3 -15 5 -4 12 -2 15 3 4 5 2 12 -3 15 -5 4
-12 2 -15 -3z"/>
<path d="M3686 8802 c6 -4 13 -15 17 -25 5 -14 11 -16 27 -7 26 14 26 33 0 25
-11 -4 -20 -2 -20 4 0 6 -8 11 -17 11 -11 0 -14 -3 -7 -8z"/>
<path d="M3541 8784 c0 -11 3 -14 6 -6 3 7 2 16 -1 19 -3 4 -6 -2 -5 -13z"/>
<path d="M3767 8794 c-8 -8 1 -24 13 -24 4 0 10 7 14 15 5 15 -14 21 -27 9z"/>
<path d="M4980 8790 c0 -5 5 -10 10 -10 6 0 10 5 10 10 0 6 -4 10 -10 10 -5 0
-10 -4 -10 -10z"/>
<path d="M4690 8781 c0 -6 5 -13 10 -16 6 -3 10 1 10 9 0 9 -4 16 -10 16 -5 0
-10 -4 -10 -9z"/>
<path d="M3335 8769 c-9 -14 -2 -20 14 -10 8 6 9 11 3 15 -6 3 -14 1 -17 -5z"/>
<path d="M3651 8754 c-11 -8 -21 -20 -21 -25 0 -6 10 -3 21 5 12 8 28 12 35 9
8 -3 14 -1 14 5 0 18 -27 21 -49 6z"/>
<path d="M3410 8749 c0 -5 5 -7 10 -4 6 3 10 8 10 11 0 2 -4 4 -10 4 -5 0 -10
-5 -10 -11z"/>
<path d="M3776 8753 c-11 -11 -6 -23 9 -23 8 0 15 4 15 9 0 13 -16 22 -24 14z"/>
<path d="M4935 8751 c-10 -17 12 -21 25 -6 10 12 10 15 -3 15 -9 0 -18 -4 -22
-9z"/>
<path d="M3537 8724 c5 -14 -8 -19 -21 -7 -3 4 -15 7 -26 8 -22 2 -27 -17 -7
-32 13 -11 47 -13 47 -4 0 3 14 12 30 19 38 17 38 29 1 30 -22 0 -28 -3 -24
-14z"/>
<path d="M3662 8714 c-16 -17 -15 -24 3 -24 8 0 15 -4 15 -10 0 -5 7 -10 15
-10 21 0 19 -17 -5 -30 -15 -8 -18 -8 -14 3 7 19 -37 16 -53 -3 -17 -21 -16
-30 3 -23 14 5 15 3 5 -15 -16 -30 -31 -36 -31 -13 0 11 -5 23 -12 27 -7 5 -9
2 -5 -8 7 -19 -22 -47 -42 -41 -9 4 -11 0 -7 -15 4 -12 2 -24 -6 -28 -6 -4
-14 -2 -16 4 -2 6 -10 8 -18 5 -8 -3 -14 0 -14 7 0 6 -6 18 -14 25 -11 12 -13
10 -13 -9 0 -13 -8 -38 -16 -55 -14 -28 -14 -33 -1 -38 16 -6 19 -39 4 -48 -5
-3 -19 0 -30 7 -17 11 -22 11 -30 -2 -15 -24 -12 -32 13 -26 12 3 16 3 10 0
-15 -7 -17 -34 -3 -34 6 0 6 -9 0 -24 -6 -18 -5 -26 4 -29 9 -4 13 -18 11 -39
-2 -18 -3 -39 -4 -46 -1 -7 -5 -11 -10 -7 -5 3 -12 1 -16 -5 -3 -5 -1 -10 6
-10 8 0 10 -13 6 -41 -4 -32 -2 -42 11 -46 24 -9 33 -26 19 -35 -17 -11 -29
-10 -22 3 10 15 -67 7 -84 -9 -12 -12 -12 -15 0 -23 14 -8 12 -10 -12 -13 -17
-2 -19 -67 -4 -83 8 -7 19 -11 27 -10 7 2 10 2 6 0 -5 -3 -8 -9 -8 -15 0 -6
-7 -16 -17 -23 -19 -14 -10 -35 15 -35 13 -1 9 -7 -12 -25 -28 -22 -29 -26
-19 -58 7 -23 7 -40 0 -52 -6 -12 -6 -20 3 -25 10 -6 10 -8 0 -12 -14 -4 -4
-68 11 -68 5 0 9 5 9 10 0 6 4 10 8 10 4 0 8 -9 8 -20 0 -11 -5 -19 -11 -19
-22 3 -35 -2 -35 -12 0 -6 9 -8 22 -3 21 6 22 5 8 -11 -12 -15 -12 -18 3 -27
16 -9 16 -11 -4 -27 l-22 -17 27 -27 c28 -28 27 -51 -5 -77 -22 -18 -28 -51
-11 -57 6 -3 12 3 12 13 0 9 3 14 6 11 14 -13 82 53 86 83 3 16 1 30 -4 30 -4
0 -8 -4 -8 -10 0 -18 -25 -11 -38 10 -12 19 -11 21 15 18 18 -2 27 1 26 10 -2
6 2 12 8 12 6 0 9 7 5 15 -3 8 1 20 8 27 7 7 17 22 24 33 11 18 11 19 12 2 0
-11 10 -27 23 -37 19 -16 20 -22 10 -38 -9 -16 -9 -21 0 -25 12 -5 31 10 36
28 2 6 8 9 13 7 16 -4 37 18 31 34 -3 8 0 14 6 14 6 0 11 11 11 25 0 14 5 25
10 25 6 0 10 -9 10 -20 0 -28 11 -25 49 14 21 21 30 39 26 47 -5 7 -4 10 2 6
6 -4 13 0 17 8 3 8 14 15 25 15 22 0 51 35 51 62 0 9 -9 20 -20 23 -22 7 -26
20 -10 30 6 3 10 14 10 23 0 15 -2 15 -10 2 -8 -12 -10 -11 -10 8 0 15 6 22
20 22 11 0 20 5 20 11 0 6 7 9 15 5 8 -3 15 -1 15 4 0 6 -4 10 -9 10 -14 0
-31 78 -17 84 7 3 6 8 -4 15 -8 6 -10 11 -4 11 8 0 11 42 11 135 0 77 -5 135
-10 135 -5 0 -5 5 1 13 8 10 10 49 3 89 -1 3 -13 11 -28 16 -18 7 -22 11 -10
11 15 1 16 4 6 22 -8 15 -8 24 0 32 8 8 11 8 11 -1 0 -7 7 -12 15 -12 21 0 19
30 -2 46 -25 18 -30 17 -36 -7 -4 -13 -10 -18 -17 -14 -9 6 -9 10 1 16 12 8
11 11 -1 19 -12 7 -12 10 -1 10 8 0 11 6 7 15 -8 21 4 76 15 69 5 -3 9 4 9 15
0 12 -4 21 -10 21 -5 0 -10 6 -10 13 0 8 -13 25 -28 39 -23 20 -30 22 -40 12z
m8 -153 c0 -5 -9 -7 -20 -4 -11 3 -20 7 -20 9 0 2 9 4 20 4 11 0 20 -4 20 -9z
m30 -1 c0 -5 -4 -10 -10 -10 -5 0 -10 5 -10 10 0 6 5 10 10 10 6 0 10 -4 10
-10z m-67 -41 c4 -15 11 -20 21 -16 10 4 16 1 16 -7 0 -8 3 -16 8 -19 4 -2 1
-2 -6 0 -7 1 -23 -2 -34 -8 -18 -10 -19 -8 -13 12 6 18 4 21 -10 15 -13 -5
-16 -2 -11 10 3 8 6 20 6 25 0 18 18 9 23 -12z m27 17 c0 -3 -4 -8 -10 -11 -5
-3 -10 -1 -10 4 0 6 5 11 10 11 6 0 10 -2 10 -4z m-70 -16 c0 -5 -4 -10 -10
-10 -5 0 -10 5 -10 10 0 6 5 10 10 10 6 0 10 -4 10 -10z m-107 -32 c-5 -27
-23 -40 -23 -17 0 13 20 52 25 47 2 -1 1 -15 -2 -30z m67 22 c0 -5 -5 -10 -11
-10 -5 0 -7 5 -4 10 3 6 8 10 11 10 2 0 4 -4 4 -10z m144 -95 c-4 -8 6 -16 26
-20 22 -5 29 -10 22 -17 -7 -7 -18 -5 -33 6 -30 20 -36 20 -42 -1 -3 -10 -5
-4 -6 12 -1 24 3 31 18 32 13 1 18 -3 15 -12z m-240 -30 c-4 -8 -8 -15 -10
-15 -2 0 -4 7 -4 15 0 8 4 15 10 15 5 0 7 -7 4 -15z m176 -5 c0 -5 -4 -10 -10
-10 -5 0 -10 5 -10 10 0 6 5 10 10 10 6 0 10 -4 10 -10z m-30 -16 c0 -8 -4
-12 -10 -9 -5 3 -10 10 -10 16 0 5 5 9 10 9 6 0 10 -7 10 -16z m104 -28 c-3
-8 -1 -17 5 -21 14 -8 14 -35 1 -35 -5 0 -10 7 -10 15 0 25 -19 17 -26 -12 -5
-16 -3 -28 4 -31 6 -2 8 -11 5 -19 -5 -12 -2 -15 10 -10 22 8 12 -15 -13 -30
-16 -11 -20 -9 -25 7 -7 22 -13 24 -34 11 -9 -6 -21 -5 -33 2 -22 14 -23 27
-2 27 8 0 12 4 9 10 -3 6 1 7 10 4 11 -5 14 -2 9 10 -3 9 -10 16 -16 16 -5 0
-6 5 -2 11 3 6 0 15 -7 20 -11 7 -10 9 4 9 9 0 17 7 17 16 0 8 5 12 10 9 7 -4
6 -13 -1 -26 -11 -22 -3 -63 12 -53 5 3 7 9 4 14 -3 5 -1 11 5 15 5 3 10 0 10
-7 0 -7 10 6 22 29 12 23 25 40 29 37 5 -2 6 -11 3 -18z m-209 -14 c0 -6 -4
-12 -10 -11 -11 1 -23 -27 -24 -54 -1 -14 4 -17 18 -12 11 3 23 0 27 -6 5 -9
2 -10 -9 -6 -12 5 -17 1 -17 -12 0 -29 -25 -33 -27 -5 -5 55 -4 105 3 116 8
13 39 6 39 -10z m258 -7 c-7 -21 -13 -19 -13 6 0 11 4 18 10 14 5 -3 7 -12 3
-20z m-253 -29 c0 -3 -4 -8 -10 -11 -5 -3 -10 -1 -10 4 0 6 5 11 10 11 6 0 10
-2 10 -4z m50 -16 c0 -5 -9 -10 -21 -10 -11 0 -17 5 -14 10 3 6 13 10 21 10 8
0 14 -4 14 -10z m210 -22 c0 -10 -4 -18 -10 -18 -5 0 -10 -5 -10 -11 0 -5 5
-7 10 -4 6 3 10 2 10 -4 0 -15 -14 -21 -29 -12 -9 6 -11 18 -7 38 7 32 36 41
36 11z m-187 -45 c16 -12 23 -24 17 -28 -5 -3 -10 -11 -10 -16 0 -6 5 -7 10
-4 16 10 11 -11 -6 -26 -10 -8 -13 -21 -9 -36 3 -13 1 -23 -5 -23 -12 0 -11
79 1 96 12 15 -25 44 -42 33 -19 -12 -29 -11 -29 1 0 6 7 10 15 10 8 0 14 3
14 8 -3 18 2 27 9 17 4 -6 20 -20 35 -32z m57 -25 c0 -18 -2 -20 -9 -8 -6 8
-7 18 -5 22 9 14 14 9 14 -14z m140 -19 c0 -6 -4 -7 -10 -4 -5 3 -10 11 -10
16 0 6 5 7 10 4 6 -3 10 -11 10 -16z m-340 7 c0 -3 -4 -8 -10 -11 -5 -3 -10
-1 -10 4 0 6 5 11 10 11 6 0 10 -2 10 -4z m310 -21 c0 -8 -4 -15 -9 -15 -13 0
-22 16 -14 24 11 11 23 6 23 -9z m-67 -36 c-7 -7 -19 -8 -30 -4 -16 8 -16 9 5
12 13 3 20 9 16 16 -5 8 -2 8 7 0 10 -10 10 -16 2 -24z m-193 2 c0 -5 -6 -16
-13 -23 -8 -7 -12 -19 -9 -26 2 -6 -1 -12 -8 -12 -8 0 -8 -6 1 -22 l11 -23
-22 22 c-21 20 -22 23 -7 37 9 9 19 25 22 36 6 20 25 28 25 11z m268 -28 c-14
-18 -29 -16 -22 2 5 11 2 13 -10 9 -12 -4 -15 -2 -11 9 5 12 11 12 30 3 17 -8
21 -14 13 -23z m-107 -21 c-6 -2 -11 -10 -11 -17 0 -20 21 -30 31 -14 7 11 9
11 9 -3 0 -9 -6 -21 -14 -25 -7 -4 -17 -21 -23 -37 -5 -17 -15 -32 -23 -34 -7
-3 -10 0 -6 7 4 6 3 11 -2 11 -14 0 -21 37 -10 48 6 6 17 8 24 5 8 -3 14 -1
14 5 0 20 -29 20 -55 0 -18 -14 -30 -17 -37 -10 -6 6 -6 12 1 16 5 4 8 13 5
20 -3 8 -1 17 5 21 7 4 11 -3 11 -16 0 -21 1 -21 18 -6 10 10 24 17 30 17 7 0
12 10 12 21 0 19 2 20 16 8 10 -8 12 -15 5 -17z m139 -7 c0 -8 -2 -15 -4 -15
-2 0 -6 7 -10 15 -3 8 -1 15 4 15 6 0 10 -7 10 -15z m-369 -26 c6 -12 7 -19 2
-17 -4 3 -16 8 -26 11 -10 4 -15 11 -12 17 10 16 23 12 36 -11z m106 4 c3 -7
-3 -9 -16 -6 -12 3 -21 10 -21 15 0 13 32 6 37 -9z m-12 -23 c3 -5 1 -10 -4
-10 -6 0 -11 5 -11 10 0 6 2 10 4 10 3 0 8 -4 11 -10z m-168 -22 c-3 -8 -6 -5
-6 6 -1 11 2 17 5 13 3 -3 4 -12 1 -19z m153 -9 c0 -5 -7 -9 -15 -9 -8 0 -15
7 -15 15 0 9 6 12 15 9 8 -4 15 -10 15 -15z m217 -11 c-8 -5 -6 -8 6 -8 9 0
17 -4 17 -10 0 -5 -9 -10 -20 -10 -11 0 -20 -2 -20 -4 0 -2 -3 -11 -6 -20 -4
-11 -1 -16 11 -16 10 0 14 5 9 13 -4 6 -4 9 1 5 4 -4 14 -3 22 3 9 8 13 8 13
1 0 -6 -4 -14 -10 -17 -5 -3 -10 -16 -11 -28 0 -12 -3 -16 -6 -9 -2 6 -10 12
-16 12 -7 0 -21 7 -31 15 -19 14 -19 15 4 35 20 18 22 23 10 30 -13 8 -12 11
5 24 14 10 22 11 27 3 4 -6 2 -15 -5 -19z m-197 -19 c0 -5 -9 -9 -20 -9 -22 0
-27 16 -7 23 15 5 27 -1 27 -14z m-30 -33 c0 -5 -6 -3 -13 3 -8 6 -16 8 -20 5
-3 -3 -3 4 0 15 5 20 6 20 19 4 7 -10 14 -22 14 -27z m100 40 c0 -3 -4 -8 -10
-11 -5 -3 -10 -1 -10 4 0 6 5 11 10 11 6 0 10 -2 10 -4z m-20 -31 c0 -8 -6
-15 -14 -15 -20 0 -29 17 -14 23 22 9 28 7 28 -8z m30 5 c0 -5 -4 -10 -10 -10
-5 0 -10 5 -10 10 0 6 5 10 10 10 6 0 10 -4 10 -10z m186 -15 c-3 -9 -11 -13
-16 -10 -8 5 -7 11 1 21 14 18 24 11 15 -11z m-148 -19 c3 -14 -1 -17 -18 -11
-20 6 -22 4 -18 -19 3 -14 1 -26 -4 -26 -5 0 -6 -4 -3 -10 3 -5 -3 -10 -13
-10 -24 0 -48 25 -32 35 5 3 10 1 10 -4 0 -20 16 -11 17 9 1 11 -2 20 -8 20
-19 0 -8 17 19 27 34 14 46 11 50 -11z m-112 -23 c-11 -11 -19 6 -11 24 8 17
8 17 12 0 3 -10 2 -21 -1 -24z m180 -18 c-2 -6 2 -24 9 -40 7 -17 14 -24 14
-17 1 10 5 10 21 0 21 -14 26 -43 10 -68 -7 -11 -8 -6 -5 18 5 41 -11 42 -20
1 -6 -28 -8 -29 -20 -12 -9 13 -10 22 -3 30 11 13 8 15 -26 17 -11 1 -20 9
-22 20 -1 10 -9 23 -16 27 -7 5 -9 9 -4 9 5 0 18 -8 29 -17 20 -17 20 -17 14
0 -4 10 -7 23 -7 28 0 5 -7 9 -16 9 -13 0 -14 3 -4 15 9 11 16 12 31 2 11 -7
17 -17 15 -22z m-66 5 c0 -5 -5 -10 -11 -10 -5 0 -7 5 -4 10 3 6 8 10 11 10 2
0 4 -4 4 -10z m-200 -12 c0 -7 -5 -20 -11 -28 -9 -13 -10 -12 -5 3 3 9 1 17
-4 17 -6 0 -10 5 -10 10 0 6 7 10 15 10 8 0 15 -6 15 -12z m295 -18 c3 -5 1
-10 -4 -10 -6 0 -11 5 -11 10 0 6 2 10 4 10 3 0 8 -4 11 -10z m-255 -60 c0 -5
-7 -7 -15 -4 -8 4 -15 8 -15 10 0 2 7 4 15 4 8 0 15 -4 15 -10z m-95 -10 c3
-5 1 -10 -4 -10 -6 0 -11 5 -11 10 0 6 2 10 4 10 3 0 8 -4 11 -10z m-44 -37
c-12 -20 -14 -14 -5 12 4 9 9 14 11 11 3 -2 0 -13 -6 -23z m215 -21 c-8 -9
-19 -13 -22 -9 -10 9 16 38 28 31 6 -4 4 -13 -6 -22z m129 9 c-3 -6 -16 -11
-28 -11 -21 1 -21 1 3 15 27 14 36 13 25 -4z m-209 -26 c2 -21 -1 -24 -12 -14
-11 9 -14 8 -14 -7 0 -16 -2 -16 -20 4 -11 12 -20 23 -20 26 0 2 9 2 20 -1 14
-4 20 0 20 11 0 26 25 8 26 -19z m-116 6 c0 -5 -7 -11 -15 -15 -15 -5 -20 5
-8 17 9 10 23 9 23 -2z m286 -18 c-3 -8 -6 -17 -6 -19 0 -2 -4 -4 -10 -4 -5 0
-10 7 -10 16 0 14 -3 14 -15 4 -17 -14 -21 0 -4 17 15 15 51 4 45 -14z m-141
-43 c3 -5 1 -10 -4 -10 -6 0 -11 5 -11 10 0 6 2 10 4 10 3 0 8 -4 11 -10z m65
-44 c0 -22 -2 -23 -24 -13 l-25 12 22 12 c12 7 23 12 25 13 1 0 2 -11 2 -24z"/>
<path d="M3630 8251 c0 -6 -7 -11 -15 -11 -8 0 -15 -4 -15 -10 0 -12 13 -13
24 -2 4 4 12 7 17 7 13 0 13 19 0 23 -6 2 -11 -1 -11 -7z"/>
<path d="M3726 8722 c-8 -14 12 -38 23 -27 6 6 4 14 -4 22 -8 7 -16 9 -19 5z"/>
<path d="M3400 8670 c-13 -8 -13 -10 1 -10 22 0 32 -39 13 -47 -8 -3 -14 -9
-14 -14 0 -4 7 -6 15 -3 11 5 13 2 9 -10 -3 -9 -11 -13 -17 -9 -6 4 -7 1 -3
-6 6 -9 12 -8 26 4 10 9 24 13 35 9 17 -7 35 10 35 34 0 18 -18 14 -23 -5 -2
-12 -7 -7 -14 17 -6 20 -16 34 -23 32 -7 -2 -16 1 -19 7 -4 6 -12 7 -21 1z"/>
<path d="M3310 8653 c0 -4 5 -15 10 -23 8 -13 10 -13 10 2 0 9 -4 20 -10 23
-5 3 -10 3 -10 -2z"/>
<path d="M3590 8650 c-8 -5 -12 -12 -9 -15 4 -3 12 1 19 10 14 17 11 19 -10 5z"/>
<path d="M3780 8628 c0 -21 4 -38 9 -38 15 0 23 18 11 25 -6 4 -8 10 -6 14 3
4 1 13 -5 21 -6 11 -9 4 -9 -22z"/>
<path d="M3370 8630 c0 -5 -6 -7 -14 -4 -7 3 -16 -2 -20 -11 -3 -9 -2 -14 3
-11 5 3 11 -4 14 -15 8 -30 26 -14 25 21 -1 27 -8 45 -8 20z"/>
<path d="M4897 8614 c-8 -8 1 -24 14 -24 5 0 9 7 9 15 0 15 -12 20 -23 9z"/>
<path d="M3753 8573 c-15 -5 -17 -29 -4 -38 5 -3 13 0 17 6 4 8 3 9 -4 5 -7
-4 -12 -3 -12 3 0 5 8 11 18 13 9 2 13 6 7 9 -5 4 -16 4 -22 2z"/>
<path d="M5297 8559 c-5 -20 0 -24 19 -11 9 5 8 10 -1 19 -10 9 -14 8 -18 -8z"/>
<path d="M3340 8539 c0 -12 5 -19 12 -17 18 6 20 25 3 31 -10 5 -15 0 -15 -14z"/>
<path d="M3406 8538 c3 -4 11 -5 19 -1 21 7 19 12 -4 10 -11 0 -18 -5 -15 -9z"/>
<path d="M5270 8509 c0 -5 5 -7 10 -4 6 3 10 8 10 11 0 2 -4 4 -10 4 -5 0 -10
-5 -10 -11z"/>
<path d="M3305 8499 c-4 -6 -4 -13 0 -17 4 -4 10 -1 12 6 10 26 25 11 20 -18
-4 -17 -2 -30 3 -30 6 0 10 6 10 14 0 8 6 16 13 19 9 3 9 7 -2 20 -15 19 -46
22 -56 6z"/>
<path d="M3395 8470 c3 -5 8 -10 11 -10 2 0 4 5 4 10 0 6 -5 10 -11 10 -5 0
-7 -4 -4 -10z"/>
<path d="M4947 8444 c6 -15 23 -19 23 -5 0 5 -7 11 -14 14 -10 4 -13 1 -9 -9z"/>
<path d="M5035 8450 c-8 -13 -1 -24 14 -19 6 3 7 10 2 18 -6 10 -10 10 -16 1z"/>
<path d="M3330 8414 c0 -8 -7 -22 -15 -30 -17 -17 -20 -54 -5 -54 6 0 10 9 10
20 0 21 24 28 35 10 3 -5 10 -10 15 -10 13 0 0 33 -16 43 -7 4 -11 14 -8 22 4
8 1 15 -5 15 -6 0 -11 -7 -11 -16z"/>
<path d="M5010 8370 c0 -13 5 -20 13 -17 6 2 12 10 12 17 0 7 -6 15 -12 18 -8
2 -13 -5 -13 -18z"/>
<path d="M4926 8335 c-10 -8 -15 -18 -11 -24 8 -14 17 -14 39 2 15 11 15 15 4
24 -10 8 -18 8 -32 -2z"/>
<path d="M5234 8342 c-13 -8 -15 -44 -2 -36 4 3 13 14 18 25 11 19 4 25 -16
11z"/>
<path d="M3357 8301 c-11 -19 -14 -32 -7 -36 5 -3 15 6 20 21 16 40 7 49 -13
15z"/>
<path d="M5040 8301 c0 -6 5 -13 10 -16 6 -3 10 1 10 9 0 9 -4 16 -10 16 -5 0
-10 -4 -10 -9z"/>
<path d="M3300 8275 c0 -8 7 -15 15 -15 9 0 12 6 9 15 -4 8 -10 15 -15 15 -5
0 -9 -7 -9 -15z"/>
<path d="M5000 8266 c0 -7 6 -19 14 -25 12 -10 14 -9 11 6 -2 10 -4 21 -4 26
-2 13 -21 7 -21 -7z"/>
<path d="M5055 8250 c-3 -5 1 -10 10 -10 9 0 13 5 10 10 -3 6 -8 10 -10 10 -2
0 -7 -4 -10 -10z"/>
<path d="M5351 8244 c0 -11 3 -14 6 -6 3 7 2 16 -1 19 -3 4 -6 -2 -5 -13z"/>
<path d="M5408 8223 c-22 -6 -24 -23 -2 -23 12 0 15 -6 10 -24 -3 -14 -1 -28
5 -31 6 -4 13 2 16 14 6 23 18 27 28 11 9 -14 25 -3 25 17 0 11 -6 14 -25 9
-20 -5 -25 -3 -25 14 0 20 -2 21 -32 13z"/>
<path d="M5285 8210 c3 -5 8 -10 11 -10 2 0 4 5 4 10 0 6 -5 10 -11 10 -5 0
-7 -4 -4 -10z"/>
<path d="M3303 8159 c-2 -51 12 -64 37 -35 6 8 19 12 27 9 12 -5 15 -2 11 9
-4 9 -1 21 5 27 15 15 -6 14 -22 -1 -11 -11 -12 -8 -7 15 5 22 4 28 -6 24 -7
-2 -12 -11 -10 -18 3 -10 -2 -9 -15 3 -17 16 -18 14 -20 -33z"/>
<path d="M5265 8139 c-8 -23 -1 -34 14 -24 13 8 15 45 2 45 -5 0 -13 -9 -16
-21z"/>
<path d="M5562 8120 c0 -14 2 -19 5 -12 2 6 2 18 0 25 -3 6 -5 1 -5 -13z"/>
<path d="M3345 8110 c3 -5 8 -10 11 -10 2 0 4 5 4 10 0 6 -5 10 -11 10 -5 0
-7 -4 -4 -10z"/>
<path d="M5170 8110 c0 -5 5 -10 10 -10 6 0 10 5 10 10 0 6 -4 10 -10 10 -5 0
-10 -4 -10 -10z"/>
<path d="M5440 8109 c-13 -7 -12 -9 2 -9 9 0 19 -6 21 -12 3 -8 6 -7 6 4 1 22
-11 29 -29 17z"/>
<path d="M5215 8080 c-17 -6 -17 -7 3 -12 12 -4 22 -13 22 -22 0 -18 15 -22
25 -6 10 16 -29 47 -50 40z"/>
<path d="M5525 8080 c3 -5 8 -10 11 -10 2 0 4 5 4 10 0 6 -5 10 -11 10 -5 0
-7 -4 -4 -10z"/>
<path d="M5570 8059 c0 -5 5 -7 10 -4 6 3 10 8 10 11 0 2 -4 4 -10 4 -5 0 -10
-5 -10 -11z"/>
<path d="M5425 8030 c-3 -5 -1 -10 4 -10 6 0 11 5 11 10 0 6 -2 10 -4 10 -3 0
-8 -4 -11 -10z"/>
<path d="M5556 8025 c-3 -8 -3 -22 1 -31 3 -9 0 -20 -8 -25 -8 -5 -9 -9 -3 -9
7 0 15 -7 18 -16 3 -8 2 -12 -4 -9 -6 3 -10 0 -11 -7 0 -7 -4 -4 -9 7 -6 14
-8 2 -6 -35 2 -30 -1 -61 -7 -68 -7 -9 -6 -11 5 -7 11 4 18 -2 22 -21 5 -20 2
-30 -14 -41 -11 -8 -19 -22 -18 -31 2 -10 -3 -16 -10 -14 -8 1 -11 -2 -8 -7 4
-5 2 -12 -3 -16 -6 -3 -7 -15 -1 -29 5 -15 5 -27 -2 -34 -6 -6 -6 -12 1 -16 6
-4 11 -17 12 -29 0 -12 3 -16 6 -9 2 6 12 12 20 12 14 0 13 -3 -3 -21 -18 -20
-18 -21 1 -35 10 -8 15 -15 9 -15 -5 -1 -19 -3 -32 -4 -12 -1 -25 -5 -28 -7
-8 -8 7 -38 20 -38 6 0 12 -9 13 -21 3 -29 22 -49 41 -42 14 6 15 4 4 -9 -13
-16 -9 -22 27 -43 11 -6 13 -4 8 8 -3 10 -2 17 3 17 18 0 10 18 -10 23 -26 7
-36 35 -22 58 8 13 8 20 1 25 -8 4 -7 10 2 16 11 7 11 11 2 15 -15 5 -18 33
-4 33 5 0 12 -6 14 -12 3 -8 6 -6 6 5 1 9 8 17 16 17 8 0 15 4 15 10 0 5 10
18 22 30 12 11 16 20 10 20 -7 0 -12 7 -12 15 0 16 25 21 34 7 3 -5 -4 -23
-14 -40 -11 -18 -15 -34 -10 -37 6 -4 10 -1 10 5 0 7 6 10 14 7 22 -9 36 12
26 39 -6 16 -6 24 1 24 6 0 3 7 -5 16 -20 19 -20 33 -2 40 8 3 16 15 19 26 5
16 11 19 31 14 30 -7 36 10 7 19 -22 7 -71 -30 -71 -52 0 -10 -7 -12 -20 -8
-11 4 -20 2 -20 -4 0 -6 -12 -22 -27 -36 -15 -14 -22 -25 -15 -25 6 0 12 -7
12 -15 0 -8 -4 -15 -10 -15 -5 0 -10 -9 -10 -20 0 -11 -7 -20 -15 -20 -15 0
-16 32 -2 46 14 15 7 33 -10 27 -16 -6 -17 -5 -3 12 8 10 10 16 3 12 -8 -5
-11 0 -10 12 1 18 3 18 17 6 13 -11 18 -11 39 6 19 16 21 22 11 34 -7 8 -18
15 -26 15 -7 0 -15 4 -18 8 -2 4 13 9 35 9 52 2 63 10 43 30 -14 15 -18 15
-43 0 l-27 -16 0 57 c1 49 -1 57 -16 54 -12 -2 -18 4 -18 18 0 21 20 29 20 8
1 -8 6 -6 14 5 7 9 18 17 25 17 6 0 11 5 11 10 0 6 -4 10 -10 10 -5 0 -7 7 -4
15 5 11 2 13 -10 9 -11 -4 -16 0 -16 14 0 12 -4 23 -10 27 -5 3 -7 12 -3 20 3
8 3 15 0 15 -3 0 -7 -7 -11 -15z"/>
<path d="M5350 8020 c0 -5 5 -10 11 -10 5 0 7 5 4 10 -3 6 -8 10 -11 10 -2 0
-4 -4 -4 -10z"/>
<path d="M5470 7984 c0 -9 5 -14 12 -12 18 6 21 28 4 28 -9 0 -16 -7 -16 -16z"/>
<path d="M5600 7990 c0 -5 5 -10 10 -10 6 0 10 5 10 10 0 6 -4 10 -10 10 -5 0
-10 -4 -10 -10z"/>
<path d="M5690 7975 c0 -17 2 -18 24 -9 18 7 12 24 -10 24 -8 0 -14 -7 -14
-15z"/>
<path d="M5353 7947 c-3 -5 -1 -13 5 -19 7 -7 13 -4 21 9 8 15 7 20 -5 20 -8
0 -17 -4 -21 -10z"/>
<path d="M5253 7929 c-2 -25 12 -32 27 -15 9 12 7 17 -7 25 -15 8 -19 6 -20
-10z"/>
<path d="M5643 7931 c-10 -15 -9 -22 2 -31 8 -7 12 -16 9 -21 -3 -5 2 -9 10
-9 9 0 15 -5 14 -11 -2 -6 3 -14 10 -16 17 -6 15 12 -2 27 -8 6 -12 18 -9 26
3 9 -1 14 -12 14 -9 0 -13 5 -10 11 4 6 14 8 22 5 9 -4 13 -1 11 6 -7 21 -32
20 -45 -1z"/>
<path d="M5438 7923 c7 -3 16 -2 19 1 4 3 -2 6 -13 5 -11 0 -14 -3 -6 -6z"/>
<path d="M5710 7920 c0 -5 5 -10 10 -10 6 0 10 5 10 10 0 6 -4 10 -10 10 -5 0
-10 -4 -10 -10z"/>
<path d="M5750 7909 c0 -5 5 -7 10 -4 6 3 10 8 10 11 0 2 -4 4 -10 4 -5 0 -10
-5 -10 -11z"/>
<path d="M3820 7892 c0 -4 6 -14 13 -21 10 -10 7 -11 -15 -6 -35 9 -53 -2 -38
-20 7 -8 9 -18 6 -24 -3 -5 1 -12 10 -15 21 -8 59 -8 51 0 -9 9 12 46 22 39 5
-3 12 3 15 12 4 10 4 15 1 11 -4 -3 -15 2 -26 13 -20 20 -39 25 -39 11z"/>
<path d="M5606 7884 c-5 -14 -4 -15 9 -4 17 14 19 20 6 20 -5 0 -12 -7 -15
-16z"/>
<path d="M5695 7890 c-3 -5 -1 -10 4 -10 6 0 11 5 11 10 0 6 -2 10 -4 10 -3 0
-8 -4 -11 -10z"/>
<path d="M5770 7860 c0 -5 4 -10 9 -10 6 0 13 5 16 10 3 6 -1 10 -9 10 -9 0
-16 -4 -16 -10z"/>
<path d="M5430 7833 c8 -3 19 -11 23 -17 6 -7 7 -6 4 4 -2 8 -12 16 -23 17
-13 2 -15 1 -4 -4z"/>
<path d="M5700 7780 c0 -5 5 -10 10 -10 6 0 10 5 10 10 0 6 -4 10 -10 10 -5 0
-10 -4 -10 -10z"/>
<path d="M5404 7771 c3 -5 -1 -14 -10 -21 -11 -10 -12 -15 -3 -21 17 -10 40
16 33 35 -3 9 -10 16 -16 16 -5 0 -7 -4 -4 -9z"/>
<path d="M5485 7770 c3 -5 8 -10 11 -10 2 0 4 5 4 10 0 6 -5 10 -11 10 -5 0
-7 -4 -4 -10z"/>
<path d="M5835 7770 c-3 -5 1 -10 10 -10 9 0 13 5 10 10 -3 6 -8 10 -10 10 -2
0 -7 -4 -10 -10z"/>
<path d="M5461 7715 c-13 -14 -18 -25 -11 -25 15 0 42 28 38 40 -2 5 -14 -2
-27 -15z"/>
<path d="M5420 7720 c0 -5 5 -10 10 -10 6 0 10 5 10 10 0 6 -4 10 -10 10 -5 0
-10 -4 -10 -10z"/>
<path d="M5775 7708 c-4 -15 -4 -32 0 -37 3 -6 -1 -11 -11 -11 -13 0 -14 -3
-5 -14 8 -10 8 -21 1 -41 -6 -15 -9 -30 -6 -32 7 -8 34 51 29 65 -3 6 2 12 9
12 18 0 45 47 33 57 -4 5 -10 2 -13 -6 -3 -10 -8 -7 -18 10 l-12 24 -7 -27z"/>
<path d="M5877 7670 c-3 -11 -1 -18 4 -14 5 3 15 2 22 -3 6 -4 21 -8 32 -10
11 -1 14 1 7 3 -6 3 -10 10 -6 15 3 5 -2 9 -10 9 -9 0 -16 5 -16 10 0 19 -28
10 -33 -10z"/>
<path d="M5450 7671 c0 -5 5 -13 10 -16 6 -3 10 -2 10 4 0 5 -4 13 -10 16 -5
3 -10 2 -10 -4z"/>
<path d="M5826 7642 c-2 -4 -1 -14 5 -22 7 -12 9 -10 9 8 0 23 -5 28 -14 14z"/>
<path d="M5854 7628 c0 -11 8 -18 18 -18 10 0 17 -5 16 -11 -2 -6 3 -14 11
-17 10 -3 12 0 8 12 -4 9 -2 16 4 16 23 0 1 25 -27 31 -24 4 -30 2 -30 -13z"/>
<path d="M5405 7610 c-3 -5 1 -10 10 -10 9 0 13 5 10 10 -3 6 -8 10 -10 10 -2
0 -7 -4 -10 -10z"/>
<path d="M5935 7612 c6 -4 17 -29 26 -56 15 -52 34 -69 42 -39 4 14 5 12 6 -6
1 -17 5 -21 17 -17 9 3 18 6 20 6 2 0 4 5 4 10 0 6 -5 10 -11 10 -13 0 -33 20
-42 43 -3 9 -11 17 -17 17 -5 0 -10 6 -10 14 0 8 -7 17 -16 20 -21 8 -31 7
-19 -2z"/>
<path d="M5431 7591 c-16 -10 -6 -31 15 -31 16 0 18 9 6 27 -4 7 -13 9 -21 4z"/>
<path d="M5840 7569 c0 -5 5 -7 10 -4 6 3 10 8 10 11 0 2 -4 4 -10 4 -5 0 -10
-5 -10 -11z"/>
<path d="M3436 7536 c-8 -39 1 -66 20 -66 20 0 17 27 -3 40 -13 8 -14 13 -5
16 14 6 16 30 3 38 -5 3 -12 -9 -15 -28z"/>
<path d="M5894 7554 c4 -10 1 -21 -6 -25 -10 -6 -6 -15 14 -33 15 -15 25 -33
22 -43 -2 -10 0 -24 5 -32 8 -12 12 -12 25 -2 13 11 16 11 16 0 0 -11 2 -11
10 1 8 13 10 12 10 -2 0 -10 5 -18 10 -18 6 0 10 -4 10 -9 0 -6 -12 -6 -30 -1
-24 7 -30 5 -30 -6 0 -8 -7 -17 -15 -20 -8 -4 -15 -13 -15 -22 0 -23 -30 -51
-48 -45 -10 4 -13 2 -8 -5 4 -7 2 -12 -4 -12 -6 0 -9 -4 -5 -9 3 -6 -7 -9 -22
-8 -23 2 -27 -2 -24 -18 6 -37 1 -98 -10 -111 -6 -7 -8 -17 -5 -23 3 -5 0 -11
-6 -14 -7 -2 -9 -8 -5 -13 15 -16 49 33 50 75 2 31 5 40 16 36 8 -3 17 -1 20
4 4 5 18 12 32 16 20 5 28 2 33 -12 4 -10 2 -19 -3 -21 -6 -2 -11 -10 -11 -19
0 -10 -6 -12 -20 -8 -14 4 -20 2 -20 -9 0 -9 9 -21 20 -28 27 -17 25 -40 -8
-76 -21 -23 -25 -32 -15 -41 7 -6 17 -11 24 -11 6 0 25 -6 42 -14 18 -7 59
-24 92 -36 33 -13 64 -27 70 -32 13 -11 28 -10 20 2 -10 16 6 12 19 -4 6 -8
18 -16 26 -18 8 -2 21 -9 29 -16 8 -8 22 -11 32 -9 11 3 19 1 19 -4 0 -5 12
-12 27 -15 15 -4 53 -20 85 -36 31 -15 64 -28 73 -28 9 0 24 -4 34 -9 15 -9
17 -6 13 20 -5 35 0 36 28 7 11 -12 22 -19 24 -17 9 9 -6 49 -19 49 -7 0 -15
9 -18 19 -6 26 -43 21 -39 -5 3 -17 1 -17 -18 4 -11 12 -25 22 -31 22 -6 0 -4
7 5 15 8 8 19 15 25 15 6 0 8 -7 5 -15 -8 -20 10 -19 27 2 11 13 11 15 1 9 -9
-5 -12 -3 -10 6 3 16 -69 118 -83 118 -6 0 -7 5 -4 10 3 6 0 13 -8 16 -9 3
-18 17 -21 30 -4 14 -11 22 -16 19 -6 -3 -10 2 -10 11 0 9 -26 54 -58 98 -32
45 -73 104 -92 133 -18 29 -37 50 -41 47 -5 -3 -11 6 -15 20 -9 37 -28 50 -54
36 -25 -13 -30 -10 -33 18 0 12 -6 18 -14 15 -7 -3 -13 0 -13 6 0 19 -32 12
-37 -9 -3 -11 -9 -20 -14 -20 -10 0 -12 13 -9 48 1 12 -3 22 -9 22 -6 0 -7 -8
-4 -17 6 -16 5 -16 -10 -4 -13 10 -15 17 -6 27 6 8 19 14 27 14 21 0 4 16 -27
25 -20 6 -23 5 -17 -11z m142 -211 c-3 -3 -11 -1 -18 4 -7 6 -21 9 -32 7 -25
-4 -7 13 19 18 19 4 43 -18 31 -29z m102 -6 c15 6 15 4 4 -10 -8 -8 -20 -13
-28 -10 -16 6 -16 6 -7 30 7 16 8 16 11 1 2 -11 9 -15 20 -11z m-123 -7 c3 -5
1 -10 -4 -10 -6 0 -11 5 -11 10 0 6 2 10 4 10 3 0 8 -4 11 -10z m-66 -69 c9
-6 10 -14 5 -24 -8 -13 -11 -12 -21 9 -12 25 -7 30 16 15z m76 -41 c3 -5 -1
-10 -10 -10 -9 0 -13 5 -10 10 3 6 8 10 10 10 2 0 7 -4 10 -10z m-45 -120 c0
-5 -7 -10 -16 -10 -8 0 -12 5 -9 10 3 6 10 10 16 10 5 0 9 -4 9 -10z m27 -42
c-3 -8 -6 -5 -6 6 -1 11 2 17 5 13 3 -3 4 -12 1 -19z m-67 -8 c0 -5 -4 -10
-10 -10 -5 0 -10 5 -10 10 0 6 5 10 10 10 6 0 10 -4 10 -10z m92 -8 c-7 -2
-12 -16 -13 -30 0 -27 0 -27 -10 -4 -9 25 8 55 26 44 5 -3 4 -7 -3 -10z m305
12 c-3 -3 -12 -4 -19 -1 -8 3 -5 6 6 6 11 1 17 -2 13 -5z m-90 -76 c-3 -8 -6
-5 -6 6 -1 11 2 17 5 13 3 -3 4 -12 1 -19z m193 -50 c0 -4 -9 -8 -21 -8 -11 0
-18 4 -15 8 3 5 12 9 21 9 8 0 15 -4 15 -9z m-250 -2 c0 -3 -4 -8 -10 -11 -5
-3 -10 -1 -10 4 0 6 5 11 10 11 6 0 10 -2 10 -4z m114 -15 c3 -5 -1 -14 -8
-20 -12 -10 -13 -8 -9 8 6 23 9 25 17 12z m86 -1 c0 -5 -2 -10 -4 -10 -3 0 -8
5 -11 10 -3 6 -1 10 4 10 6 0 11 -4 11 -10z m-30 -80 c0 -5 -2 -10 -4 -10 -3
0 -8 5 -11 10 -3 6 -1 10 4 10 6 0 11 -4 11 -10z"/>
<path d="M3290 7550 c0 -5 5 -10 11 -10 5 0 7 5 4 10 -3 6 -8 10 -11 10 -2 0
-4 -4 -4 -10z"/>
<path d="M5490 7551 c0 -8 -7 -10 -22 -6 -17 6 -20 4 -15 -10 4 -9 7 -19 7
-21 0 -3 10 4 22 16 12 11 18 23 15 27 -4 3 -7 1 -7 -6z"/>
<path d="M5605 7510 c-3 -5 1 -10 9 -10 9 0 16 -4 16 -10 0 -16 27 -12 34 6 3
8 2 12 -3 9 -5 -3 -12 -1 -16 5 -8 13 -32 13 -40 0z"/>
<path d="M6045 7470 c3 -5 11 -10 16 -10 6 0 7 5 4 10 -3 6 -11 10 -16 10 -6
0 -7 -4 -4 -10z"/>
<path d="M3305 7460 c-3 -5 -1 -10 4 -10 6 0 11 5 11 10 0 6 -2 10 -4 10 -3 0
-8 -4 -11 -10z"/>
<path d="M5602 7440 c1 -16 5 -30 10 -30 4 0 8 -7 8 -15 0 -8 5 -15 10 -15 6
0 10 4 10 9 0 5 3 16 6 25 4 10 1 16 -9 16 -22 0 -32 20 -16 31 11 7 11 9 -3
9 -12 0 -16 -8 -16 -30z"/>
<path d="M5810 7447 c0 -7 9 -13 19 -13 15 0 17 3 9 13 -6 7 -14 13 -19 13 -5
0 -9 -6 -9 -13z"/>
<path d="M3290 7420 c0 -5 5 -10 10 -10 6 0 10 5 10 10 0 6 -4 10 -10 10 -5 0
-10 -4 -10 -10z"/>
<path d="M5824 7405 c3 -8 -3 -19 -12 -25 -16 -9 -7 -9 37 -1 2 1 -2 7 -8 14
-6 8 -8 17 -4 20 3 4 1 7 -6 7 -8 0 -11 -7 -7 -15z"/>
<path d="M5902 7400 c1 -13 9 -25 16 -28 17 -5 15 23 -4 39 -14 11 -15 10 -12
-11z"/>
<path d="M5720 7365 c-7 -9 -8 -15 -2 -15 5 0 12 7 16 15 3 8 4 15 2 15 -2 0
-9 -7 -16 -15z"/>
<path d="M5600 7331 c0 -5 7 -12 16 -15 22 -9 24 -8 24 9 0 8 -9 15 -20 15
-11 0 -20 -4 -20 -9z"/>
<path d="M5681 7314 c0 -11 3 -14 6 -6 3 7 2 16 -1 19 -3 4 -6 -2 -5 -13z"/>
<path d="M5825 7311 c-3 -5 -1 -12 5 -16 5 -3 10 1 10 9 0 18 -6 21 -15 7z"/>
<path d="M5790 7300 c0 -5 5 -10 10 -10 6 0 10 5 10 10 0 6 -4 10 -10 10 -5 0
-10 -4 -10 -10z"/>
<path d="M5630 7286 c0 -18 30 -49 38 -41 4 3 1 10 -6 14 -7 4 -10 15 -6 24 4
12 1 17 -10 17 -9 0 -16 -6 -16 -14z"/>
<path d="M5870 7115 c0 -8 7 -15 16 -15 14 0 14 3 4 15 -7 8 -14 15 -16 15 -2
0 -4 -7 -4 -15z"/>
<path d="M5840 7104 c0 -8 5 -12 10 -9 6 3 10 10 10 16 0 5 -4 9 -10 9 -5 0
-10 -7 -10 -16z"/>
<path d="M5815 7050 c-4 -6 -3 -16 3 -22 13 -13 23 4 13 21 -7 10 -10 10 -16
1z"/>
<path d="M6510 6760 c0 -5 4 -10 9 -10 6 0 13 5 16 10 3 6 -1 10 -9 10 -9 0
-16 -4 -16 -10z"/>
<path d="M6414 10136 c-10 -8 -17 -17 -14 -19 3 -3 14 1 24 9 11 7 17 16 15
19 -3 3 -14 -2 -25 -9z"/>
<path d="M9193 10909 c-72 -61 -104 -100 -101 -123 4 -24 134 -136 158 -136
27 0 104 74 125 119 l18 40 -27 35 c-25 33 -107 106 -119 106 -3 0 -27 -18
-54 -41z"/>
<path d="M9733 10887 c-68 -71 -72 -89 -36 -140 16 -23 47 -55 70 -71 l42 -29
73 60 c92 76 98 86 73 114 -40 44 -136 119 -154 119 -10 0 -41 -24 -68 -53z"/>
<path d="M9449 10593 c-32 -31 -59 -63 -59 -71 0 -18 96 -139 121 -152 14 -8
25 -6 45 6 26 18 114 126 114 141 0 17 -126 133 -144 133 -9 0 -44 -25 -77
-57z"/>
<path d="M14390 11050 c0 -5 5 -10 10 -10 6 0 10 5 10 10 0 6 -4 10 -10 10 -5
0 -10 -4 -10 -10z"/>
<path d="M14436 11052 c-3 -6 1 -13 10 -16 23 -9 28 -2 10 13 -8 7 -17 8 -20
3z"/>
<path d="M15130 11040 c0 -5 5 -10 10 -10 6 0 10 5 10 10 0 6 -4 10 -10 10 -5
0 -10 -4 -10 -10z"/>
<path d="M14230 11030 c0 -5 5 -10 11 -10 5 0 7 5 4 10 -3 6 -8 10 -11 10 -2
0 -4 -4 -4 -10z"/>
<path d="M12220 11015 c0 -8 4 -15 10 -15 5 0 7 7 4 15 -4 8 -8 15 -10 15 -2
0 -4 -7 -4 -15z"/>
<path d="M14390 10992 c0 -45 15 -57 22 -18 3 13 -1 32 -9 42 -12 16 -13 13
-13 -24z"/>
<path d="M14665 11020 c3 -5 8 -10 11 -10 2 0 4 5 4 10 0 6 -5 10 -11 10 -5 0
-7 -4 -4 -10z"/>
<path d="M14520 11005 c0 -18 19 -40 26 -32 4 4 0 15 -9 24 -9 10 -17 13 -17
8z"/>
<path d="M14483 10984 c-17 -18 -17 -29 0 -15 8 6 17 8 20 4 4 -3 7 -1 7 5 0
18 -14 21 -27 6z"/>
<path d="M11380 10979 c0 -5 5 -7 10 -4 6 3 10 8 10 11 0 2 -4 4 -10 4 -5 0
-10 -5 -10 -11z"/>
<path d="M13952 10973 c2 -10 12 -19 23 -20 11 -2 14 0 8 3 -7 3 -13 12 -13
20 0 8 -5 14 -11 14 -6 0 -9 -8 -7 -17z"/>
<path d="M14086 10981 c-4 -7 -5 -15 -2 -18 9 -9 19 4 14 18 -4 11 -6 11 -12
0z"/>
<path d="M14277 10970 c3 -11 9 -20 14 -20 11 0 11 3 3 24 -9 23 -23 20 -17
-4z"/>
<path d="M14820 10971 c0 -10 36 -21 44 -14 3 3 3 10 0 14 -7 12 -44 12 -44 0z"/>
<path d="M14115 10960 c-3 -5 -1 -10 4 -10 6 0 11 5 11 10 0 6 -2 10 -4 10 -3
0 -8 -4 -11 -10z"/>
<path d="M14315 10960 c-8 -13 9 -20 24 -11 10 6 9 10 -3 14 -8 3 -18 2 -21
-3z"/>
<path d="M7800 11056 c0 -9 7 -16 16 -16 9 0 14 5 12 12 -6 18 -28 21 -28 4z"/>
<path d="M11112 10100 c0 -14 2 -19 5 -12 2 6 2 18 0 25 -3 6 -5 1 -5 -13z"/>
<path d="M10960 9876 c0 -9 5 -16 10 -16 6 0 10 4 10 9 0 6 -4 13 -10 16 -5 3
-10 -1 -10 -9z"/>
<path d="M10986 9333 c-81 -252 -153 -471 -159 -487 -10 -26 -8 -31 13 -45 13
-9 64 -47 113 -86 136 -107 121 -99 159 -79 18 9 56 33 83 53 28 20 75 53 106
73 l56 36 52 -50 c28 -28 54 -49 56 -46 3 2 -11 31 -30 63 -20 32 -34 64 -31
70 2 6 -5 38 -16 71 -11 32 -35 115 -53 184 -29 111 -153 544 -188 658 l-13
43 -148 -458z"/>
<path d="M11490 9660 c0 -5 5 -10 10 -10 6 0 10 5 10 10 0 6 -4 10 -10 10 -5
0 -10 -4 -10 -10z"/>
<path d="M11351 9614 c0 -11 3 -14 6 -6 3 7 2 16 -1 19 -3 4 -6 -2 -5 -13z"/>
<path d="M11416 9572 c-3 -6 -1 -14 5 -17 14 -9 20 -2 10 14 -6 8 -11 9 -15 3z"/>
<path d="M10917 9373 c-4 -3 -7 -11 -7 -17 0 -6 5 -5 12 2 6 6 9 14 7 17 -3 3
-9 2 -12 -2z"/>
<path d="M10745 9349 c-8 -13 -7 -15 25 -24 25 -8 25 -8 6 14 -22 24 -23 25
-31 10z"/>
<path d="M11630 9312 c0 -10 22 -32 32 -32 12 0 -2 28 -18 34 -8 3 -14 2 -14
-2z"/>
<path d="M10800 9300 c0 -5 4 -10 9 -10 6 0 13 5 16 10 3 6 -1 10 -9 10 -9 0
-16 -4 -16 -10z"/>
<path d="M10677 9280 c3 -11 9 -17 15 -14 5 3 4 12 -3 20 -16 19 -18 18 -12
-6z"/>
<path d="M11350 9231 c0 -13 29 -35 37 -28 7 8 -15 37 -28 37 -5 0 -9 -4 -9
-9z"/>
<path d="M11555 9219 c-4 -6 -5 -13 -2 -16 7 -7 27 6 27 18 0 12 -17 12 -25
-2z"/>
<path d="M11700 9211 c0 -5 5 -13 10 -16 6 -3 10 -2 10 4 0 5 -4 13 -10 16 -5
3 -10 2 -10 -4z"/>
<path d="M11490 9150 c0 -5 5 -10 11 -10 5 0 7 5 4 10 -3 6 -8 10 -11 10 -2 0
-4 -4 -4 -10z"/>
<path d="M11567 9106 c-3 -8 -2 -18 4 -22 16 -9 22 2 11 21 -8 15 -10 16 -15
1z"/>
<path d="M11600 9068 c0 -13 48 -58 62 -58 17 0 7 22 -12 27 -10 3 -22 14 -25
24 -7 21 -25 26 -25 7z"/>
<path d="M11690 8989 c0 -5 5 -7 10 -4 6 3 10 8 10 11 0 2 -4 4 -10 4 -5 0
-10 -5 -10 -11z"/>
<path d="M11552 8874 c3 -17 21 -21 26 -6 1 5 -4 12 -13 16 -11 4 -15 1 -13
-10z"/>
<path d="M10685 8860 c-3 -5 -2 -10 4 -10 5 0 13 5 16 10 3 6 2 10 -4 10 -5 0
-13 -4 -16 -10z"/>
<path d="M11450 8855 c0 -8 5 -15 10 -15 6 0 10 7 10 15 0 8 -4 15 -10 15 -5
0 -10 -7 -10 -15z"/>
<path d="M10725 8850 c3 -5 8 -10 11 -10 2 0 4 5 4 10 0 6 -5 10 -11 10 -5 0
-7 -4 -4 -10z"/>
<path d="M11615 8840 c-3 -5 -1 -10 4 -10 6 0 11 5 11 10 0 6 -2 10 -4 10 -3
0 -8 -4 -11 -10z"/>
<path d="M11697 8839 c7 -7 15 -10 18 -7 3 3 -2 9 -12 12 -14 6 -15 5 -6 -5z"/>
<path d="M10630 8821 c0 -6 5 -13 10 -16 6 -3 10 1 10 9 0 9 -4 16 -10 16 -5
0 -10 -4 -10 -9z"/>
<path d="M10680 8794 c0 -21 4 -25 20 -21 11 3 20 1 20 -4 0 -13 14 -11 36 6
16 13 16 14 2 9 -10 -3 -18 -1 -18 5 0 6 -7 8 -17 4 -12 -5 -15 -2 -10 10 5
12 1 17 -13 17 -15 0 -20 -7 -20 -26z"/>
<path d="M11458 8813 c7 -3 16 -2 19 1 4 3 -2 6 -13 5 -11 0 -14 -3 -6 -6z"/>
<path d="M11665 8800 c3 -5 8 -10 11 -10 2 0 4 5 4 10 0 6 -5 10 -11 10 -5 0
-7 -4 -4 -10z"/>
<path d="M10602 8784 c-13 -9 -21 -22 -18 -30 4 -9 -4 -18 -19 -24 -31 -12
-33 -24 -2 -14 66 20 69 23 53 40 -21 21 -20 27 4 19 15 -5 18 -3 14 9 -7 19
-5 19 -32 0z"/>
<path d="M11467 8779 c-6 -23 7 -34 21 -16 7 8 6 16 -3 24 -10 9 -14 8 -18 -8z"/>
<path d="M11580 8780 c0 -5 -6 -10 -14 -10 -8 0 -17 -7 -20 -16 -9 -23 -8 -24
15 -24 11 0 17 5 14 10 -3 6 1 10 9 10 9 0 16 9 16 20 0 11 -4 20 -10 20 -5 0
-10 -4 -10 -10z"/>
<path d="M11641 8764 c0 -11 3 -14 6 -6 3 7 2 16 -1 19 -3 4 -6 -2 -5 -13z"/>
<path d="M10477 8740 c-3 -11 -1 -20 4 -20 5 0 9 2 9 4 0 2 3 11 6 20 3 9 2
16 -4 16 -5 0 -12 -9 -15 -20z"/>
<path d="M10610 8711 c0 -10 19 -25 25 -20 1 2 -3 10 -11 17 -8 7 -14 8 -14 3z"/>
<path d="M10674 8704 c3 -9 6 -18 6 -20 0 -2 8 -4 18 -3 10 0 12 3 5 6 -7 2
-13 11 -13 19 0 8 -5 14 -11 14 -6 0 -8 -7 -5 -16z"/>
<path d="M10560 8700 c-13 -8 -13 -10 2 -10 9 0 20 5 23 10 8 13 -5 13 -25 0z"/>
<path d="M11536 8695 c4 -9 11 -14 16 -13 15 5 11 23 -6 26 -11 2 -14 -2 -10
-13z"/>
<path d="M10592 8673 c-15 -3 -22 -10 -18 -18 3 -9 0 -12 -8 -9 -7 3 -13 -2
-13 -11 0 -19 7 -19 35 1 12 8 22 12 22 9 0 -4 7 0 15 9 26 26 20 29 -33 19z"/>
<path d="M10345 8660 c-3 -5 1 -10 9 -10 10 0 16 -9 16 -22 0 -12 3 -19 6 -15
9 9 -4 57 -16 57 -5 0 -12 -4 -15 -10z"/>
<path d="M10850 8659 c0 -5 5 -7 10 -4 6 3 10 8 10 11 0 2 -4 4 -10 4 -5 0
-10 -5 -10 -11z"/>
<path d="M11487 8633 c-10 -3 -16 -10 -14 -16 6 -19 22 -18 35 3 12 20 11 21
-21 13z"/>
<path d="M11557 8633 c-3 -5 0 -19 8 -29 15 -20 18 -11 6 20 -4 11 -10 15 -14
9z"/>
<path d="M11823 8617 c8 -7 17 -19 20 -27 3 -9 6 -5 6 10 1 19 -4 26 -20 27
-18 2 -19 0 -6 -10z"/>
<path d="M10408 8600 c-16 -18 -14 -30 4 -30 5 0 7 4 3 9 -3 6 2 14 11 19 9 5
12 12 7 15 -5 3 -17 -2 -25 -13z"/>
<path d="M10610 8600 c0 -5 5 -10 10 -10 6 0 10 5 10 10 0 6 -4 10 -10 10 -5
0 -10 -4 -10 -10z"/>
<path d="M10637 8592 c-21 -23 -22 -42 -2 -42 11 0 14 -7 9 -25 -3 -14 -2 -25
4 -25 13 0 24 29 15 43 -4 6 -6 24 -5 39 3 33 0 34 -21 10z"/>
<path d="M11643 8593 c-20 -8 -15 -23 7 -23 11 0 20 7 20 15 0 15 -6 17 -27 8z"/>
<path d="M10520 8574 c0 -8 5 -12 10 -9 6 3 10 10 10 16 0 5 -4 9 -10 9 -5 0
-10 -7 -10 -16z"/>
<path d="M10580 8580 c0 -5 5 -10 11 -10 5 0 7 5 4 10 -3 6 -8 10 -11 10 -2 0
-4 -4 -4 -10z"/>
<path d="M11450 8580 c0 -5 4 -10 9 -10 6 0 13 5 16 10 3 6 -1 10 -9 10 -9 0
-16 -4 -16 -10z"/>
<path d="M10440 8570 c0 -5 5 -10 11 -10 5 0 7 5 4 10 -3 6 -8 10 -11 10 -2 0
-4 -4 -4 -10z"/>
<path d="M10780 8569 c0 -5 5 -7 10 -4 6 3 10 8 10 11 0 2 -4 4 -10 4 -5 0
-10 -5 -10 -11z"/>
<path d="M10550 8560 c0 -5 5 -10 10 -10 6 0 10 5 10 10 0 6 -4 10 -10 10 -5
0 -10 -4 -10 -10z"/>
<path d="M11590 8562 c0 -12 19 -26 26 -19 2 2 -2 10 -11 17 -9 8 -15 8 -15 2z"/>
<path d="M11130 8550 c0 -5 5 -10 11 -10 5 0 7 5 4 10 -3 6 -8 10 -11 10 -2 0
-4 -4 -4 -10z"/>
<path d="M10740 8536 c0 -2 7 -6 15 -10 8 -3 15 -1 15 4 0 6 -7 10 -15 10 -8
0 -15 -2 -15 -4z"/>
<path d="M11160 8535 c0 -3 7 -14 16 -23 15 -14 16 -14 13 3 -4 17 -29 35 -29
20z"/>
<path d="M11707 8511 c-11 -22 -12 -31 -4 -31 18 0 36 35 27 49 -5 9 -12 4
-23 -18z"/>
<path d="M10495 8521 c-3 -5 -1 -12 5 -16 5 -3 10 1 10 9 0 18 -6 21 -15 7z"/>
<path d="M11600 8519 c0 -5 5 -7 10 -4 6 3 10 8 10 11 0 2 -4 4 -10 4 -5 0
-10 -5 -10 -11z"/>
<path d="M10406 8467 c3 -12 11 -26 17 -32 7 -7 8 -6 3 3 -4 7 -3 19 3 26 9
10 7 15 -9 19 -18 4 -20 2 -14 -16z"/>
<path d="M10517 8473 c-4 -3 -7 -11 -7 -17 0 -6 5 -5 12 2 6 6 9 14 7 17 -3 3
-9 2 -12 -2z"/>
<path d="M10354 8446 c1 -18 4 -22 14 -14 9 8 9 14 1 24 -16 19 -17 18 -15
-10z"/>
<path d="M11661 8460 c-21 -12 -5 -60 19 -60 24 0 24 -1 7 38 -9 22 -17 28
-26 22z"/>
<path d="M11016 8441 c-3 -5 1 -14 9 -21 12 -10 15 -10 15 3 0 19 -16 31 -24
18z"/>
<path d="M10325 8430 c-3 -5 -1 -10 4 -10 6 0 11 5 11 10 0 6 -2 10 -4 10 -3
0 -8 -4 -11 -10z"/>
<path d="M10490 8390 c0 -5 4 -10 8 -10 5 0 14 -11 21 -24 8 -14 25 -26 42
-28 23 -4 26 -2 18 9 -7 7 -17 13 -24 13 -8 0 -22 11 -33 25 -21 26 -32 32
-32 15z"/>
<path d="M10402 8370 c-8 -13 -8 -20 -2 -20 6 0 13 7 17 15 9 24 -1 27 -15 5z"/>
<path d="M11897 8373 c-12 -12 -7 -38 13 -63 l20 -25 0 28 c0 17 -5 27 -15 27
-8 0 -15 5 -15 10 0 6 5 10 10 10 6 0 10 5 10 10 0 11 -13 13 -23 3z"/>
<path d="M10438 8354 c-11 -11 -10 -64 1 -64 15 0 18 12 12 43 -3 16 -9 25
-13 21z"/>
<path d="M11800 8334 c0 -9 7 -14 17 -12 25 5 28 28 4 28 -12 0 -21 -6 -21
-16z"/>
<path d="M10500 8314 c0 -8 5 -12 10 -9 6 3 10 10 10 16 0 5 -4 9 -10 9 -5 0
-10 -7 -10 -16z"/>
<path d="M11061 8314 c0 -11 3 -14 6 -6 3 7 2 16 -1 19 -3 4 -6 -2 -5 -13z"/>
<path d="M10304 8304 c3 -9 6 -20 6 -25 0 -5 9 -1 20 8 27 23 25 33 -6 33 -20
0 -25 -4 -20 -16z"/>
<path d="M10395 8300 c4 -6 11 -8 16 -5 14 9 11 15 -7 15 -8 0 -12 -5 -9 -10z"/>
<path d="M10990 8299 c0 -5 5 -7 10 -4 6 3 10 8 10 11 0 2 -4 4 -10 4 -5 0
-10 -5 -10 -11z"/>
<path d="M11790 8280 c0 -5 5 -10 10 -10 6 0 10 5 10 10 0 6 -4 10 -10 10 -5
0 -10 -4 -10 -10z"/>
<path d="M11820 8270 c0 -5 5 -10 10 -10 6 0 10 5 10 10 0 6 -4 10 -10 10 -5
0 -10 -4 -10 -10z"/>
<path d="M10323 8250 c-3 -11 -8 -18 -12 -16 -3 2 -14 -1 -23 -8 -15 -11 -15
-14 3 -36 15 -20 19 -22 19 -8 0 10 5 15 13 12 17 -6 57 29 57 50 0 23 -21 20
-27 -4 -3 -11 -9 -20 -14 -20 -13 0 -11 24 3 38 9 9 9 12 -1 12 -7 0 -15 -9
-18 -20z"/>
<path d="M10430 8255 c7 -8 19 -15 27 -15 12 0 12 2 -1 15 -8 8 -20 15 -27 15
-9 0 -8 -4 1 -15z"/>
<path d="M10522 8253 c4 -21 30 -24 34 -5 1 7 0 8 -3 2 -8 -16 -26 -12 -19 5
3 8 1 15 -5 15 -6 0 -9 -8 -7 -17z"/>
<path d="M10265 8250 c-3 -5 -2 -10 4 -10 5 0 13 5 16 10 3 6 2 10 -4 10 -5 0
-13 -4 -16 -10z"/>
<path d="M11858 8253 c6 -2 18 -2 25 0 6 3 1 5 -13 5 -14 0 -19 -2 -12 -5z"/>
<path d="M11918 8253 c7 -3 16 -2 19 1 4 3 -2 6 -13 5 -11 0 -14 -3 -6 -6z"/>
<path d="M10475 8231 c-3 -5 -1 -12 5 -16 5 -3 10 1 10 9 0 18 -6 21 -15 7z"/>
<path d="M11600 8230 c0 -5 7 -10 15 -10 8 0 15 5 15 10 0 6 -7 10 -15 10 -8
0 -15 -4 -15 -10z"/>
<path d="M11860 8230 c0 -5 5 -10 10 -10 6 0 10 5 10 10 0 6 -4 10 -10 10 -5
0 -10 -4 -10 -10z"/>
<path d="M11916 8192 c2 -20 13 -44 24 -53 10 -9 16 -19 13 -23 -4 -3 -2 -6 4
-6 18 0 23 13 10 28 -6 9 -12 31 -12 50 0 28 -4 35 -22 38 -20 3 -22 0 -17
-34z"/>
<path d="M10532 8209 c2 -7 10 -15 17 -17 8 -3 12 1 9 9 -2 7 -10 15 -17 17
-8 3 -12 -1 -9 -9z"/>
<path d="M10241 8191 c-13 -23 -14 -31 -3 -31 13 0 32 39 22 45 -5 3 -14 -3
-19 -14z"/>
<path d="M11650 8198 c0 -9 -5 -18 -12 -20 -7 -3 -8 -7 -2 -11 5 -3 16 -2 23
2 10 7 11 13 2 27 -9 16 -10 17 -11 2z"/>
<path d="M10460 8191 c0 -5 7 -11 15 -15 8 -3 15 -1 15 3 0 5 -7 11 -15 15 -8
3 -15 1 -15 -3z"/>
<path d="M11877 8183 c-4 -3 -7 -17 -7 -30 0 -12 -6 -23 -12 -23 -7 0 -5 -5 6
-11 15 -9 16 -13 5 -20 -10 -7 -7 -9 11 -8 48 4 60 -1 60 -22 0 -17 3 -19 13
-10 8 6 17 8 20 4 4 -3 7 -2 7 4 0 6 -8 13 -17 17 -43 14 -76 44 -66 59 3 5 9
3 14 -4 12 -19 11 -6 -1 25 -9 26 -21 32 -33 19z"/>
<path d="M10370 8155 c-9 -10 -9 -15 -1 -15 6 0 11 -9 11 -20 0 -11 2 -20 4
-20 2 0 11 -2 19 -5 10 -4 13 2 12 23 -3 50 -22 65 -45 37z"/>
<path d="M10271 8156 c2 -2 15 -9 29 -16 23 -12 24 -12 11 3 -7 10 -20 17 -29
17 -8 0 -13 -2 -11 -4z"/>
<path d="M10330 8141 c0 -11 -8 -22 -17 -24 -14 -4 -13 -5 3 -6 12 0 25 6 28
15 9 23 7 34 -4 34 -5 0 -10 -9 -10 -19z"/>
<path d="M10440 8146 c0 -16 17 -24 45 -21 50 6 77 34 30 31 -14 0 -25 -4 -25
-8 0 -4 -11 -3 -25 2 -19 7 -25 6 -25 -4z"/>
<path d="M10260 8130 c0 -5 5 -10 10 -10 6 0 10 5 10 10 0 6 -4 10 -10 10 -5
0 -10 -4 -10 -10z"/>
<path d="M10200 8110 c0 -5 9 -10 21 -10 11 0 17 5 14 10 -3 6 -13 10 -21 10
-8 0 -14 -4 -14 -10z"/>
<path d="M11645 8105 c-21 -9 -25 -14 -12 -14 11 -1 21 -10 24 -21 7 -27 27
-20 32 11 1 13 8 27 15 31 20 13 -28 8 -59 -7z"/>
<path d="M10450 8094 c-20 -11 -22 -14 -8 -19 21 -8 49 7 40 21 -5 7 -15 6
-32 -2z"/>
<path d="M10275 8090 c3 -6 -1 -13 -9 -16 -9 -3 -16 -14 -16 -23 1 -15 2 -15
13 0 12 16 42 15 32 -1 -3 -5 -1 -11 4 -14 5 -3 11 1 15 9 3 8 2 15 -3 15 -5
0 -11 9 -14 20 -3 11 -10 20 -17 20 -6 0 -8 -5 -5 -10z"/>
<path d="M10210 8080 c0 -5 5 -10 10 -10 6 0 10 5 10 10 0 6 -4 10 -10 10 -5
0 -10 -4 -10 -10z"/>
<path d="M11850 8064 c0 -8 5 -12 10 -9 6 4 8 11 5 16 -9 14 -15 11 -15 -7z"/>
<path d="M11900 8055 c0 -33 15 -33 16 0 1 14 -2 25 -7 25 -5 0 -9 -11 -9 -25z"/>
<path d="M10364 8049 c-4 -7 1 -16 10 -21 9 -5 16 -15 16 -23 0 -8 9 -19 20
-25 16 -9 19 -8 13 7 -5 12 -2 15 10 10 12 -5 17 -1 17 12 0 23 -20 32 -51 24
-18 -5 -21 -3 -16 10 7 19 -8 23 -19 6z"/>
<path d="M11730 8050 c0 -5 5 -10 10 -10 6 0 10 5 10 10 0 6 -4 10 -10 10 -5
0 -10 -4 -10 -10z"/>
<path d="M10320 8018 c0 -8 5 -19 11 -25 6 -6 12 -19 13 -29 4 -26 23 -29 36
-5 9 18 8 21 -10 21 -11 0 -20 6 -20 14 0 7 -7 19 -15 26 -12 10 -15 10 -15
-2z"/>
<path d="M11660 7998 c0 -19 2 -20 10 -8 13 19 13 30 0 30 -5 0 -10 -10 -10
-22z"/>
<path d="M11829 8015 c-1 -3 -2 -8 -3 -12 -1 -5 -5 -14 -10 -21 -7 -11 -4 -11
13 0 22 13 29 38 11 38 -5 0 -11 -2 -11 -5z"/>
<path d="M10132 7990 c-15 -24 -16 -40 -2 -40 6 0 10 9 10 20 0 14 5 18 16 13
11 -4 15 -2 12 7 -7 22 -22 22 -36 0z"/>
<path d="M11940 7995 c0 -8 4 -15 10 -15 5 0 7 7 4 15 -4 8 -8 15 -10 15 -2 0
-4 -7 -4 -15z"/>
<path d="M11705 7990 c-3 -5 -1 -10 4 -10 6 0 11 5 11 10 0 6 -2 10 -4 10 -3
0 -8 -4 -11 -10z"/>
<path d="M11734 7981 c4 -5 0 -12 -6 -14 -8 -4 -9 -6 -2 -6 6 -1 17 6 24 14
10 12 9 15 -4 15 -10 0 -15 -4 -12 -9z"/>
<path d="M10230 7970 c0 -5 4 -10 9 -10 6 0 13 5 16 10 3 6 -1 10 -9 10 -9 0
-16 -4 -16 -10z"/>
<path d="M11890 7971 c0 -15 16 -22 35 -15 13 5 14 8 3 15 -18 12 -38 11 -38
0z"/>
<path d="M11965 7971 c-7 -12 9 -20 38 -18 10 0 16 5 14 11 -5 15 -44 20 -52
7z"/>
<path d="M10170 7960 c0 -5 5 -10 10 -10 6 0 10 5 10 10 0 6 -4 10 -10 10 -5
0 -10 -4 -10 -10z"/>
<path d="M10260 7950 c-13 -8 -12 -10 3 -10 9 0 17 5 17 10 0 12 -1 12 -20 0z"/>
<path d="M10220 7940 c0 -5 5 -10 10 -10 6 0 10 5 10 10 0 6 -4 10 -10 10 -5
0 -10 -4 -10 -10z"/>
<path d="M10455 7940 c-3 -5 -2 -10 4 -10 5 0 13 5 16 10 3 6 2 10 -4 10 -5 0
-13 -4 -16 -10z"/>
<path d="M11748 7943 c7 -3 16 -2 19 1 4 3 -2 6 -13 5 -11 0 -14 -3 -6 -6z"/>
<path d="M11824 7935 c-16 -12 -17 -14 -3 -15 9 0 19 7 23 15 7 19 5 19 -20 0z"/>
<path d="M11910 7925 c0 -8 4 -15 10 -15 5 0 7 7 4 15 -4 8 -8 15 -10 15 -2 0
-4 -7 -4 -15z"/>
<path d="M11954 7904 c1 -24 20 -33 31 -14 3 6 1 10 -5 10 -6 0 -9 4 -6 9 3 5
0 11 -8 14 -10 4 -13 -2 -12 -19z"/>
<path d="M10184 7899 c-3 -6 -2 -15 4 -21 6 -6 11 -2 15 11 5 22 -7 29 -19 10z"/>
<path d="M10220 7900 c0 -5 5 -10 10 -10 6 0 10 5 10 10 0 6 -4 10 -10 10 -5
0 -10 -4 -10 -10z"/>
<path d="M12001 7894 c0 -11 3 -14 6 -6 3 7 2 16 -1 19 -3 4 -6 -2 -5 -13z"/>
<path d="M11848 7889 c-23 -13 -26 -89 -3 -89 8 0 15 7 15 15 0 10 9 14 30 11
36 -4 39 10 9 48 -23 29 -26 30 -51 15z m32 -38 c0 -10 -26 -9 -36 2 -4 4 2 7
14 7 12 0 22 -4 22 -9z"/>
<path d="M12035 7880 c3 -5 12 -7 20 -3 21 7 19 13 -6 13 -11 0 -18 -4 -14
-10z"/>
<path d="M11740 7866 c0 -8 5 -18 10 -21 6 -3 10 3 10 14 0 12 -4 21 -10 21
-5 0 -10 -6 -10 -14z"/>
<path d="M10275 7860 c3 -5 10 -10 16 -10 5 0 9 5 9 10 0 6 -7 10 -16 10 -8 0
-12 -4 -9 -10z"/>
<path d="M11710 7859 c0 -5 5 -7 10 -4 6 3 10 8 10 11 0 2 -4 4 -10 4 -5 0
-10 -5 -10 -11z"/>
<path d="M10200 7850 c0 -5 5 -10 10 -10 6 0 10 5 10 10 0 6 -4 10 -10 10 -5
0 -10 -4 -10 -10z"/>
<path d="M11947 7853 c-9 -9 -9 -43 1 -43 11 0 32 37 25 44 -8 8 -18 8 -26 -1z"/>
<path d="M12050 7850 c0 -5 5 -10 11 -10 5 0 7 5 4 10 -3 6 -8 10 -11 10 -2 0
-4 -4 -4 -10z"/>
<path d="M10030 7841 c0 -6 5 -13 10 -16 6 -3 10 1 10 9 0 9 -4 16 -10 16 -5
0 -10 -4 -10 -9z"/>
<path d="M10205 7820 c3 -5 11 -10 16 -10 6 0 7 5 4 10 -3 6 -11 10 -16 10 -6
0 -7 -4 -4 -10z"/>
<path d="M10065 7812 c-13 -9 -17 -32 -6 -32 13 0 33 28 24 33 -5 3 -13 3 -18
-1z"/>
<path d="M10100 7808 c0 -5 6 -8 14 -8 8 0 22 -3 30 -6 11 -4 15 -2 11 7 -5
14 -55 20 -55 7z"/>
<path d="M12020 7814 c0 -16 23 -44 35 -44 19 0 19 5 -2 30 -17 19 -33 26 -33
14z"/>
<path d="M11865 7790 c-18 -7 -19 -8 -2 -15 21 -9 50 1 42 15 -7 12 -13 12
-40 0z"/>
<path d="M11605 7780 c-3 -5 3 -10 15 -10 12 0 18 5 15 10 -3 6 -10 10 -15 10
-5 0 -12 -4 -15 -10z"/>
<path d="M12095 7770 c3 -5 10 -10 16 -10 5 0 9 5 9 10 0 6 -7 10 -16 10 -8 0
-12 -4 -9 -10z"/>
<path d="M12145 7770 c3 -5 12 -7 20 -3 21 7 19 13 -6 13 -11 0 -18 -4 -14
-10z"/>
<path d="M8197 9667 l-99 -62 1 -195 c1 -278 -4 -311 -59 -385 -24 -33 -57
-75 -74 -92 -16 -18 -27 -36 -23 -39 8 -8 87 51 178 132 36 32 161 139 277
238 117 98 212 184 211 190 0 6 -24 31 -53 56 -29 25 -96 84 -150 133 -54 48
-101 87 -104 86 -4 0 -51 -28 -105 -62z"/>
<path d="M8555 9220 c4 -6 11 -8 16 -5 14 9 11 15 -7 15 -8 0 -12 -5 -9 -10z"/>
<path d="M7900 9149 c0 -12 5 -19 12 -17 18 6 20 25 3 31 -10 5 -15 0 -15 -14z"/>
<path d="M7970 9006 c0 -9 5 -16 10 -16 6 0 10 4 10 9 0 6 -4 13 -10 16 -5 3
-10 -1 -10 -9z"/>
<path d="M7884 8887 c3 -10 6 -21 6 -23 0 -9 29 -3 36 8 5 8 2 9 -9 5 -10 -4
-21 1 -27 11 -11 16 -11 15 -6 -1z"/>
<path d="M7970 8850 c0 -5 5 -10 10 -10 6 0 10 5 10 10 0 6 -4 10 -10 10 -5 0
-10 -4 -10 -10z"/>
<path d="M8127 8843 c-12 -11 -8 -23 8 -23 8 0 15 7 15 15 0 16 -12 20 -23 8z"/>
<path d="M7900 8810 c0 -5 5 -10 10 -10 6 0 10 5 10 10 0 6 -4 10 -10 10 -5 0
-10 -4 -10 -10z"/>
<path d="M7770 8794 c0 -8 5 -12 10 -9 6 3 10 10 10 16 0 5 -4 9 -10 9 -5 0
-10 -7 -10 -16z"/>
<path d="M7730 8624 c0 -8 5 -12 10 -9 6 3 10 10 10 16 0 5 -4 9 -10 9 -5 0
-10 -7 -10 -16z"/>
<path d="M7785 8620 c-3 -5 1 -10 9 -10 9 0 16 5 16 10 0 6 -4 10 -9 10 -6 0
-13 -4 -16 -10z"/>
<path d="M8750 8485 c-7 -9 -8 -15 -2 -15 5 0 12 7 16 15 3 8 4 15 2 15 -2 0
-9 -7 -16 -15z"/>
<path d="M7760 8435 c0 -9 9 -15 25 -15 16 0 25 6 25 15 0 9 -9 15 -25 15 -16
0 -25 -6 -25 -15z"/>
<path d="M8680 8399 c0 -5 5 -7 10 -4 6 3 10 8 10 11 0 2 -4 4 -10 4 -5 0 -10
-5 -10 -11z"/>
<path d="M7891 8366 c-10 -12 -8 -13 8 -9 12 3 18 9 15 14 -7 12 -10 11 -23
-5z"/>
<path d="M8036 8341 c-3 -5 1 -11 9 -15 9 -3 15 0 15 9 0 16 -16 20 -24 6z"/>
<path d="M8755 8330 c3 -5 8 -10 11 -10 2 0 4 5 4 10 0 6 -5 10 -11 10 -5 0
-7 -4 -4 -10z"/>
<path d="M7791 8301 c-10 -6 -10 -10 -1 -16 13 -8 24 -1 19 14 -3 6 -10 7 -18
2z"/>
<path d="M8530 8300 c0 -5 5 -10 11 -10 5 0 7 5 4 10 -3 6 -8 10 -11 10 -2 0
-4 -4 -4 -10z"/>
<path d="M8692 8294 c-7 -8 -10 -19 -6 -26 5 -7 10 -3 16 12 10 28 7 33 -10
14z"/>
<path d="M8792 8298 c5 -15 28 -23 28 -10 0 5 -7 13 -16 16 -10 4 -14 1 -12
-6z"/>
<path d="M8300 8290 c0 -5 5 -10 10 -10 6 0 10 5 10 10 0 6 -4 10 -10 10 -5 0
-10 -4 -10 -10z"/>
<path d="M8020 8274 c0 -10 3 -14 7 -11 3 4 15 -1 26 -10 19 -17 19 -17 16 2
-3 11 -9 20 -14 20 -6 0 -16 4 -22 8 -9 5 -13 2 -13 -9z"/>
<path d="M8220 8261 c0 -12 -4 -20 -9 -17 -5 3 -11 -1 -15 -9 -8 -22 10 -27
33 -7 18 15 19 19 6 36 -15 19 -15 19 -15 -3z"/>
<path d="M8550 8270 c0 -5 5 -10 11 -10 5 0 7 5 4 10 -3 6 -8 10 -11 10 -2 0
-4 -4 -4 -10z"/>
<path d="M8275 8250 c-3 -5 -1 -10 4 -10 6 0 11 5 11 10 0 6 -2 10 -4 10 -3 0
-8 -4 -11 -10z"/>
<path d="M8632 8252 c-9 -7 -6 -13 13 -28 14 -10 25 -24 25 -31 0 -7 5 -13 10
-13 6 0 10 11 10 25 0 18 -4 23 -16 18 -11 -4 -15 -1 -12 12 3 20 -11 28 -30
17z"/>
<path d="M8706 8237 c3 -10 9 -15 12 -12 3 3 0 11 -7 18 -10 9 -11 8 -5 -6z"/>
<path d="M8750 8246 c0 -2 9 -6 20 -9 11 -3 20 -1 20 4 0 5 -9 9 -20 9 -11 0
-20 -2 -20 -4z"/>
<path d="M7971 8224 c0 -11 3 -14 6 -6 3 7 2 16 -1 19 -3 4 -6 -2 -5 -13z"/>
<path d="M8135 8220 c-3 -5 -1 -10 4 -10 6 0 11 5 11 10 0 6 -2 10 -4 10 -3 0
-8 -4 -11 -10z"/>
<path d="M8283 8205 c0 -14 26 -30 35 -21 4 5 -22 36 -31 36 -2 0 -4 -7 -4
-15z"/>
<path d="M8607 8214 c7 -3 9 -12 6 -20 -3 -9 2 -14 16 -14 12 0 21 3 21 6 0
10 -33 33 -45 33 -5 0 -5 -3 2 -5z"/>
<path d="M8745 8200 c6 -19 -2 -25 -31 -21 -7 1 -14 -8 -17 -19 -4 -17 -2 -20
16 -15 23 7 67 50 67 66 0 5 -9 9 -21 9 -16 0 -19 -4 -14 -20z"/>
<path d="M8375 8190 c3 -5 8 -10 11 -10 2 0 4 5 4 10 0 6 -5 10 -11 10 -5 0
-7 -4 -4 -10z"/>
<path d="M8475 8180 c-3 -5 -2 -10 4 -10 5 0 13 5 16 10 3 6 2 10 -4 10 -5 0
-13 -4 -16 -10z"/>
<path d="M8046 8172 c-3 -6 -1 -14 5 -17 15 -10 25 3 12 16 -7 7 -13 7 -17 1z"/>
<path d="M8220 8141 c0 -5 5 -13 10 -16 6 -3 10 -2 10 4 0 5 -4 13 -10 16 -5
3 -10 2 -10 -4z"/>
<path d="M8430 8131 c-6 -12 -7 -21 -1 -21 10 0 24 30 17 37 -2 3 -9 -5 -16
-16z"/>
<path d="M8272 8128 c-17 -17 -15 -26 6 -37 16 -9 19 -6 20 19 1 32 -7 37 -26
18z"/>
<path d="M8386 8131 c-4 -7 -5 -15 -2 -18 9 -9 19 4 14 18 -4 11 -6 11 -12 0z"/>
<path d="M8691 8121 c-7 -5 -11 -15 -9 -22 3 -10 8 -7 17 9 13 24 12 26 -8 13z"/>
<path d="M8226 8101 c-4 -6 -15 -11 -24 -11 -21 -1 -69 -36 -60 -45 4 -4 13
-3 20 1 7 5 20 8 28 9 8 0 26 8 40 17 17 13 21 21 13 29 -8 8 -13 8 -17 0z"/>
<path d="M8545 8100 c-3 -5 -1 -10 4 -10 6 0 11 5 11 10 0 6 -2 10 -4 10 -3 0
-8 -4 -11 -10z"/>
<path d="M8592 8078 c6 -18 28 -21 28 -4 0 9 -7 16 -16 16 -9 0 -14 -5 -12
-12z"/>
<path d="M8520 8050 c0 -5 5 -10 10 -10 6 0 10 5 10 10 0 6 -4 10 -10 10 -5 0
-10 -4 -10 -10z"/>
<path d="M8286 8011 c-3 -5 1 -11 9 -15 8 -3 15 -1 15 4 0 13 -18 22 -24 11z"/>
<path d="M8465 7930 c3 -5 1 -10 -5 -10 -6 0 -8 -5 -4 -11 4 -8 9 -7 15 2 12
19 11 29 -2 29 -5 0 -7 -4 -4 -10z"/>
<path d="M13203 9652 c-34 -26 -114 -87 -177 -136 l-116 -90 0 -383 c0 -309 3
-383 13 -383 14 0 157 -95 224 -149 24 -19 47 -30 53 -26 7 4 36 44 64 89 126
194 282 446 317 510 l38 69 -31 61 c-65 129 -295 486 -313 486 -5 0 -38 -22
-72 -48z"/>
<path d="M12680 9020 c0 -5 5 -10 10 -10 6 0 10 5 10 10 0 6 -4 10 -10 10 -5
0 -10 -4 -10 -10z"/>
<path d="M12670 8949 c0 -5 5 -7 10 -4 6 3 10 8 10 11 0 2 -4 4 -10 4 -5 0
-10 -5 -10 -11z"/>
<path d="M12660 8900 c0 -11 5 -20 10 -20 6 0 10 9 10 20 0 11 -4 20 -10 20
-5 0 -10 -9 -10 -20z"/>
<path d="M12700 8870 c0 -5 5 -10 11 -10 5 0 7 5 4 10 -3 6 -8 10 -11 10 -2 0
-4 -4 -4 -10z"/>
<path d="M12755 8830 c3 -5 11 -10 16 -10 6 0 7 5 4 10 -3 6 -11 10 -16 10 -6
0 -7 -4 -4 -10z"/>
<path d="M12575 8650 c3 -5 8 -10 11 -10 2 0 4 5 4 10 0 6 -5 10 -11 10 -5 0
-7 -4 -4 -10z"/>
<path d="M12636 8602 c-3 -6 -1 -14 5 -17 15 -10 25 3 12 16 -7 7 -13 7 -17 1z"/>
<path d="M12797 8586 c-4 -10 -5 -21 -2 -24 9 -9 17 6 13 25 -3 17 -4 17 -11
-1z"/>
<path d="M12583 8566 c7 -13 15 -22 19 -20 8 5 -13 44 -23 44 -4 0 -2 -11 4
-24z"/>
<path d="M13455 8430 c-3 -5 -1 -10 4 -10 6 0 11 5 11 10 0 6 -2 10 -4 10 -3
0 -8 -4 -11 -10z"/>
<path d="M13020 8409 c0 -5 5 -7 10 -4 6 3 10 8 10 11 0 2 -4 4 -10 4 -5 0
-10 -5 -10 -11z"/>
<path d="M13416 8413 c-11 -11 -6 -23 9 -23 8 0 15 4 15 9 0 13 -16 22 -24 14z"/>
<path d="M12485 8400 c3 -5 8 -10 11 -10 2 0 4 5 4 10 0 6 -5 10 -11 10 -5 0
-7 -4 -4 -10z"/>
<path d="M12766 8403 c-13 -13 -5 -28 19 -40 14 -6 25 -7 25 -2 0 5 -4 9 -10
9 -5 0 -10 6 -10 14 0 17 -14 28 -24 19z"/>
<path d="M12682 8379 c2 -6 8 -10 13 -10 5 0 11 4 13 10 2 6 -4 11 -13 11 -9
0 -15 -5 -13 -11z"/>
<path d="M13455 8370 c3 -5 8 -10 11 -10 2 0 4 5 4 10 0 6 -5 10 -11 10 -5 0
-7 -4 -4 -10z"/>
<path d="M13347 8363 c-12 -11 -8 -23 8 -23 8 0 15 -4 15 -10 0 -5 7 -7 15 -4
8 4 15 16 15 28 0 17 -2 18 -10 6 -6 -10 -10 -11 -10 -2 0 13 -22 17 -33 5z"/>
<path d="M13360 8230 c0 -5 5 -10 10 -10 6 0 10 5 10 10 0 6 -4 10 -10 10 -5
0 -10 -4 -10 -10z"/>
<path d="M13190 8197 c0 -7 9 -13 20 -13 24 0 26 11 4 20 -22 8 -24 8 -24 -7z"/>
<path d="M12570 8050 c0 -5 5 -10 10 -10 6 0 10 5 10 10 0 6 -4 10 -10 10 -5
0 -10 -4 -10 -10z"/>
<path d="M12852 8011 c4 -13 18 -16 19 -4 0 4 -5 9 -11 12 -7 2 -11 -2 -8 -8z"/>
<path d="M12535 8000 c-4 -7 -3 -16 3 -22 14 -14 45 -2 40 15 -6 16 -34 21
-43 7z"/>
<path d="M12668 7944 c-32 -17 -28 -49 8 -58 21 -6 23 -10 14 -26 -8 -15 -6
-21 9 -30 29 -15 41 -12 41 10 0 11 -4 20 -9 20 -10 0 -56 69 -50 74 2 2 13 8
24 14 30 17 -4 13 -37 -4z"/>
<path d="M12723 7895 c0 -8 4 -15 9 -15 4 0 8 7 8 15 0 8 -4 15 -8 15 -5 0 -9
-7 -9 -15z"/>
<path d="M12826 7850 c-15 -5 -16 -9 -7 -14 7 -5 18 -3 24 3 14 14 6 20 -17
11z"/>
<path d="M12620 7810 c0 -5 5 -10 11 -10 5 0 7 5 4 10 -3 6 -8 10 -11 10 -2 0
-4 -4 -4 -10z"/>
<path d="M12720 7798 c0 -9 5 -20 10 -23 13 -8 13 5 0 25 -8 13 -10 13 -10 -2z"/>
<path d="M12752 7788 c3 -7 13 -15 22 -16 12 -3 17 1 14 10 -3 7 -13 15 -22
16 -12 3 -17 -1 -14 -10z"/>
<path d="M12685 7781 c-3 -5 -1 -12 5 -16 5 -3 10 1 10 9 0 18 -6 21 -15 7z"/>
<path d="M12845 7780 c-3 -5 1 -10 9 -10 9 0 16 5 16 10 0 6 -4 10 -9 10 -6 0
-13 -4 -16 -10z"/>
<path d="M12534 7765 c-6 -15 2 -35 14 -35 4 0 8 11 8 25 2 27 -13 34 -22 10z"/>
<path d="M12800 7770 c0 -5 5 -10 11 -10 5 0 7 5 4 10 -3 6 -8 10 -11 10 -2 0
-4 -4 -4 -10z"/>
<path d="M12570 7740 c0 -5 5 -10 10 -10 6 0 10 5 10 10 0 6 -4 10 -10 10 -5
0 -10 -4 -10 -10z"/>
<path d="M12610 7740 c0 -7 24 -20 36 -20 13 0 1 19 -16 23 -11 3 -20 2 -20
-3z"/>
<path d="M12809 7713 c-11 -13 -11 -17 -1 -20 6 -3 12 -9 12 -15 0 -6 -7 -7
-16 -4 -8 3 -13 2 -10 -3 7 -11 56 -11 56 1 0 5 -7 11 -15 14 -10 4 -13 13
-10 25 8 23 2 24 -16 2z"/>
<path d="M12755 7700 c3 -5 10 -10 16 -10 5 0 9 5 9 10 0 6 -7 10 -16 10 -8 0
-12 -4 -9 -10z"/>
<path d="M12550 7670 c0 -22 8 -25 30 -10 13 9 13 11 0 20 -22 15 -30 12 -30
-10z"/>
<path d="M12816 7625 c-3 -9 -11 -13 -17 -9 -7 4 -10 2 -8 -5 3 -7 9 -11 14
-10 38 9 45 13 42 22 -6 18 -24 19 -31 2z"/>
<path d="M12556 7603 c-6 -14 -5 -15 5 -6 7 7 10 15 7 18 -3 3 -9 -2 -12 -12z"/>
<path d="M12850 7590 c0 -5 5 -10 10 -10 6 0 10 5 10 10 0 6 -4 10 -10 10 -5
0 -10 -4 -10 -10z"/>
<path d="M12530 7535 c0 -33 15 -33 16 0 1 14 -2 25 -7 25 -5 0 -9 -11 -9 -25z"/>
<path d="M12554 7466 c-4 -11 -2 -21 7 -27 31 -19 38 -5 15 27 -14 18 -15 18
-22 0z"/>
<path d="M12567 7359 c-9 -5 -22 -7 -27 -4 -6 3 -10 1 -10 -5 0 -15 62 -8 68
8 4 14 -7 15 -31 1z"/>
<path d="M12530 7320 c0 -5 7 -10 15 -10 8 0 15 5 15 10 0 6 -7 10 -15 10 -8
0 -15 -4 -15 -10z"/>
<path d="M12570 7269 c0 -5 5 -7 10 -4 6 3 10 8 10 11 0 2 -4 4 -10 4 -5 0
-10 -5 -10 -11z"/>
<path d="M12536 7244 c-9 -23 -8 -24 18 -24 13 0 26 -6 29 -12 4 -10 7 -10 17
-1 11 10 11 15 0 28 -7 8 -15 13 -18 11 -2 -3 -13 -1 -22 4 -13 7 -20 6 -24
-6z"/>
<path d="M12590 7170 c8 -15 8 -18 -3 -14 -7 2 -24 1 -38 -5 l-24 -9 29 -11
c16 -7 35 -10 42 -7 17 7 13 66 -4 66 -10 0 -10 -5 -2 -20z"/>
<path d="M15008 9604 c-69 -55 -151 -118 -182 -141 l-56 -43 0 -362 c0 -200 3
-372 6 -384 3 -11 20 -26 37 -32 18 -7 77 -46 132 -87 55 -41 105 -75 111 -75
6 0 25 21 41 48 17 26 76 119 133 207 196 304 240 379 240 409 0 17 -24 70
-58 130 -74 128 -219 358 -252 398 l-25 30 -127 -98z"/>
<path d="M15540 9590 c0 -5 5 -10 10 -10 6 0 10 5 10 10 0 6 -4 10 -10 10 -5
0 -10 -4 -10 -10z"/>
<path d="M14655 9159 c-11 -17 1 -21 15 -4 8 9 8 15 2 15 -6 0 -14 -5 -17 -11z"/>
<path d="M14536 9024 c-8 -22 1 -31 16 -16 9 9 9 15 1 23 -7 7 -12 5 -17 -7z"/>
<path d="M14532 8978 c-7 -7 -12 -16 -12 -21 0 -5 7 -1 16 8 9 9 14 18 12 20
-2 3 -10 -1 -16 -7z"/>
<path d="M14510 8893 c-13 -15 -13 -16 2 -11 8 4 21 1 28 -5 9 -9 11 -8 8 7
-4 26 -20 29 -38 9z"/>
<path d="M14701 8824 c0 -11 3 -14 6 -6 3 7 2 16 -1 19 -3 4 -6 -2 -5 -13z"/>
<path d="M14420 8639 c0 -5 5 -7 10 -4 6 3 10 8 10 11 0 2 -4 4 -10 4 -5 0
-10 -5 -10 -11z"/>
<path d="M14610 8630 c-13 -8 -13 -10 2 -10 9 0 20 5 23 10 8 13 -5 13 -25 0z"/>
<path d="M15500 8624 c0 -8 5 -12 10 -9 6 3 10 10 10 16 0 5 -4 9 -10 9 -5 0
-10 -7 -10 -16z"/>
<path d="M15301 8614 c0 -11 3 -14 6 -6 3 7 2 16 -1 19 -3 4 -6 -2 -5 -13z"/>
<path d="M14490 8601 c0 -6 5 -13 10 -16 6 -3 10 1 10 9 0 9 -4 16 -10 16 -5
0 -10 -4 -10 -9z"/>
<path d="M14446 8581 c-4 -5 -2 -12 4 -16 6 -4 8 -11 5 -16 -4 -5 -1 -9 4 -9
6 0 10 9 8 20 -4 25 -13 34 -21 21z"/>
<path d="M14652 8579 c2 -7 10 -15 17 -17 8 -3 12 1 9 9 -2 7 -10 15 -17 17
-8 3 -12 -1 -9 -9z"/>
<path d="M15337 8486 c-4 -10 -1 -13 9 -9 15 6 19 23 5 23 -5 0 -11 -7 -14
-14z"/>
<path d="M14830 8430 c0 -5 5 -10 10 -10 6 0 10 5 10 10 0 6 -4 10 -10 10 -5
0 -10 -4 -10 -10z"/>
<path d="M15256 8423 c-3 -3 -6 -15 -6 -26 0 -13 5 -17 16 -13 9 3 20 6 25 6
5 0 9 4 9 10 0 12 -35 31 -44 23z"/>
<path d="M14610 8395 c0 -8 5 -15 10 -15 6 0 19 -9 31 -21 27 -27 33 -20 13
19 -16 33 -54 45 -54 17z"/>
<path d="M14580 8370 c0 -5 5 -10 10 -10 6 0 10 5 10 10 0 6 -4 10 -10 10 -5
0 -10 -4 -10 -10z"/>
<path d="M15193 8356 c2 -6 23 -11 46 -12 26 -1 40 3 38 10 -2 6 -23 12 -46
12 -28 1 -41 -2 -38 -10z"/>
<path d="M14430 8330 c0 -5 5 -10 10 -10 6 0 10 5 10 10 0 6 -4 10 -10 10 -5
0 -10 -4 -10 -10z"/>
<path d="M14366 8313 c-6 -14 -5 -15 5 -6 7 7 10 15 7 18 -3 3 -9 -2 -12 -12z"/>
<path d="M15160 8296 c0 -9 5 -16 10 -16 6 0 10 4 10 9 0 6 -4 13 -10 16 -5 3
-10 -1 -10 -9z"/>
<path d="M15197 8288 c6 -11 31 -10 37 1 3 5 -5 8 -18 7 -13 0 -22 -4 -19 -8z"/>
<path d="M15102 8253 c-6 -2 -10 -9 -7 -13 3 -5 12 -7 20 -3 9 3 15 -1 15 -11
0 -9 5 -16 10 -16 13 0 12 11 -4 33 -14 18 -14 18 -34 10z"/>
<path d="M15180 8206 c0 -8 7 -16 15 -20 9 -3 15 0 15 8 0 8 -7 16 -15 20 -9
3 -15 0 -15 -8z"/>
<path d="M15050 8195 c7 -9 15 -13 17 -11 7 7 -7 26 -19 26 -6 0 -6 -6 2 -15z"/>
<path d="M15086 8202 c-3 -6 -1 -14 5 -17 15 -10 25 3 12 16 -7 7 -13 7 -17 1z"/>
<path d="M14400 8150 c0 -5 5 -10 10 -10 6 0 10 5 10 10 0 6 -4 10 -10 10 -5
0 -10 -4 -10 -10z"/>
<path d="M15120 8141 c0 -11 5 -23 10 -26 6 -4 10 5 10 19 0 14 -4 26 -10 26
-5 0 -10 -9 -10 -19z"/>
<path d="M14490 8129 c0 -5 5 -7 10 -4 6 3 10 8 10 11 0 2 -4 4 -10 4 -5 0
-10 -5 -10 -11z"/>
<path d="M14440 8080 c0 -5 5 -10 10 -10 6 0 10 5 10 10 0 6 -4 10 -10 10 -5
0 -10 -4 -10 -10z"/>
<path d="M14383 7992 c-6 -14 20 -42 39 -42 11 0 30 39 24 49 -9 14 -57 9 -63
-7z"/>
<path d="M14560 7960 c0 -5 5 -10 10 -10 6 0 10 5 10 10 0 6 -4 10 -10 10 -5
0 -10 -4 -10 -10z"/>
<path d="M14512 7931 c-8 -5 -4 -18 13 -43 14 -21 25 -42 25 -47 0 -6 9 -11
19 -11 12 0 25 -12 33 -30 7 -16 16 -30 20 -30 3 0 13 -2 20 -5 9 -4 14 2 14
15 0 13 -5 19 -13 16 -7 -3 -13 1 -13 9 0 8 -9 19 -20 25 -11 6 -20 17 -20 26
0 9 -7 14 -17 12 -14 -2 -18 4 -18 33 0 35 -16 47 -43 30z"/>
<path d="M14691 7904 c-21 -24 -3 -30 19 -6 13 14 16 22 8 22 -7 -1 -19 -8
-27 -16z"/>
<path d="M14600 7890 c0 -5 5 -10 11 -10 5 0 7 5 4 10 -3 6 -8 10 -11 10 -2 0
-4 -4 -4 -10z"/>
<path d="M14636 7867 c3 -10 9 -15 12 -12 3 3 0 11 -7 18 -10 9 -11 8 -5 -6z"/>
<path d="M14698 7853 c7 -3 16 -2 19 1 4 3 -2 6 -13 5 -11 0 -14 -3 -6 -6z"/>
<path d="M14440 7794 c0 -8 5 -12 10 -9 6 3 10 10 10 16 0 5 -4 9 -10 9 -5 0
-10 -7 -10 -16z"/>
<path d="M14380 7790 c0 -5 5 -10 10 -10 6 0 10 5 10 10 0 6 -4 10 -10 10 -5
0 -10 -4 -10 -10z"/>
<path d="M14706 7791 c-3 -5 1 -14 9 -21 12 -10 15 -10 15 3 0 19 -16 31 -24
18z"/>
<path d="M14415 7751 c4 -13 -1 -27 -14 -40 -29 -29 -26 -34 9 -16 17 9 34 13
39 11 14 -9 19 29 6 47 -18 25 -48 22 -40 -2z"/>
<path d="M14505 7760 c-3 -5 -1 -10 4 -10 6 0 11 5 11 10 0 6 -2 10 -4 10 -3
0 -8 -4 -11 -10z"/>
<path d="M14375 7740 c-3 -5 -1 -10 4 -10 6 0 11 5 11 10 0 6 -2 10 -4 10 -3
0 -8 -4 -11 -10z"/>
<path d="M14543 7711 c-10 -16 -8 -18 13 -18 21 0 23 2 12 16 -7 9 -13 17 -13
18 0 1 -6 -6 -12 -16z"/>
<path d="M14660 7715 c0 -8 6 -15 14 -15 7 0 19 7 26 15 11 13 8 15 -14 15
-16 0 -26 -5 -26 -15z"/>
<path d="M14610 7655 c-7 -9 -10 -18 -7 -21 8 -9 28 6 22 16 -3 4 5 6 17 2 14
-3 19 -2 14 6 -10 17 -31 15 -46 -3z"/>
<path d="M14680 7660 c0 -11 48 -25 57 -16 4 3 -3 6 -15 6 -12 0 -22 5 -22 10
0 6 -4 10 -10 10 -5 0 -10 -4 -10 -10z"/>
<path d="M14423 7615 c-10 -10 -9 -14 2 -18 7 -3 16 1 19 8 7 20 -6 26 -21 10z"/>
<path d="M14650 7616 c0 -19 20 -31 42 -28 13 2 16 -1 12 -12 -3 -9 -1 -16 5
-16 16 0 14 17 -5 45 -18 27 -54 34 -54 11z"/>
<path d="M14401 7574 c0 -11 3 -14 6 -6 3 7 2 16 -1 19 -3 4 -6 -2 -5 -13z"/>
<path d="M14435 7571 c3 -5 0 -13 -7 -17 -7 -5 -4 -10 12 -16 12 -5 26 -5 29
-2 3 4 0 9 -6 11 -7 3 -13 11 -13 19 0 8 -5 14 -11 14 -5 0 -8 -4 -4 -9z"/>
<path d="M14443 7503 c9 -9 20 -13 24 -9 4 4 1 11 -7 16 -25 16 -35 11 -17 -7z"/>
<path d="M14428 7473 c-18 -5 -23 -15 -12 -26 7 -7 44 14 44 25 0 8 -4 9 -32
1z"/>
<path d="M14400 7379 c0 -5 5 -7 10 -4 6 3 10 8 10 11 0 2 -4 4 -10 4 -5 0
-10 -5 -10 -11z"/>
<path d="M14420 7360 c-7 -14 -7 -20 0 -20 5 0 10 5 10 10 0 6 7 10 15 10 8 0
15 5 15 10 0 18 -29 11 -40 -10z"/>
<path d="M14402 7228 c6 -18 25 -21 25 -3 0 8 -7 15 -14 15 -8 0 -13 -5 -11
-12z"/>
<path d="M14443 7160 c3 -11 0 -20 -6 -20 -6 0 -2 -6 9 -14 17 -13 20 -13 28
4 6 13 5 25 -4 35 -18 21 -33 19 -27 -5z"/>
<path d="M14407 7111 c3 -12 10 -21 15 -21 13 0 6 32 -9 37 -7 3 -9 -3 -6 -16z"/>
<path d="M9480 9769 c0 -5 5 -7 10 -4 6 3 10 8 10 11 0 2 -4 4 -10 4 -5 0 -10
-5 -10 -11z"/>
<path d="M9600 9431 c0 -5 9 -7 20 -4 11 3 20 7 20 9 0 2 -9 4 -20 4 -11 0
-20 -4 -20 -9z"/>
<path d="M9426 8861 c-19 -7 -19 -8 2 -13 15 -4 22 -2 22 8 0 8 -1 14 -2 13
-2 0 -12 -4 -22 -8z"/>
<path d="M9425 8740 c-10 -11 -15 -20 -11 -20 11 0 39 30 34 36 -3 2 -13 -5
-23 -16z"/>
<path d="M9490 8640 c0 -5 5 -10 10 -10 6 0 10 5 10 10 0 6 -4 10 -10 10 -5 0
-10 -4 -10 -10z"/>
<path d="M9557 8634 c-12 -12 -8 -24 8 -24 8 0 15 -6 15 -14 0 -8 7 -16 15
-20 21 -8 18 4 -8 37 -13 15 -26 24 -30 21z"/>
<path d="M9660 8586 c0 -9 5 -16 10 -16 6 0 10 4 10 9 0 6 -4 13 -10 16 -5 3
-10 -1 -10 -9z"/>
<path d="M9490 8539 c0 -5 5 -7 10 -4 6 3 10 8 10 11 0 2 -4 4 -10 4 -5 0 -10
-5 -10 -11z"/>
<path d="M9610 8540 c0 -5 5 -10 11 -10 5 0 7 5 4 10 -3 6 -8 10 -11 10 -2 0
-4 -4 -4 -10z"/>
<path d="M9350 8520 c0 -5 5 -10 10 -10 6 0 10 5 10 10 0 6 -4 10 -10 10 -5 0
-10 -4 -10 -10z"/>
<path d="M9390 8520 c0 -5 7 -10 16 -10 8 0 12 5 9 10 -3 6 -10 10 -16 10 -5
0 -9 -4 -9 -10z"/>
<path d="M9403 8483 c-7 -17 7 -45 25 -51 18 -6 15 55 -3 62 -9 3 -18 -1 -22
-11z"/>
<path d="M9344 8439 c-3 -6 -1 -16 5 -22 9 -9 14 -8 21 3 9 15 4 30 -10 30 -5
0 -12 -5 -16 -11z"/>
<path d="M9500 8420 c0 -5 5 -10 11 -10 5 0 7 5 4 10 -3 6 -8 10 -11 10 -2 0
-4 -4 -4 -10z"/>
<path d="M9585 8421 c-3 -5 -1 -12 5 -16 5 -3 10 1 10 9 0 18 -6 21 -15 7z"/>
<path d="M9330 8400 c0 -13 28 -25 38 -16 3 4 0 11 -8 16 -20 13 -30 12 -30 0z"/>
<path d="M9407 8386 c-3 -8 -3 -17 0 -20 9 -9 34 15 27 25 -8 13 -21 11 -27
-5z"/>
<path d="M9500 8330 c0 -6 12 -10 27 -10 29 0 24 12 -7 17 -11 2 -20 -2 -20
-7z"/>
<path d="M9650 8321 c0 -5 5 -13 10 -16 6 -3 10 -2 10 4 0 5 -4 13 -10 16 -5
3 -10 2 -10 -4z"/>
<path d="M9500 8262 c0 -4 5 -13 12 -20 16 -16 28 -15 28 2 0 8 -7 17 -16 20
-21 8 -24 8 -24 -2z"/>
<path d="M9432 8235 c-7 -8 -21 -15 -31 -15 -13 0 -18 -7 -18 -25 0 -13 5 -23
11 -22 6 1 10 -3 9 -9 -1 -7 7 -14 17 -17 24 -6 25 -1 5 19 -17 17 -21 49 -5
39 6 -3 10 -1 10 4 0 6 9 11 21 11 11 0 19 5 17 12 -6 18 -21 19 -36 3z"/>
<path d="M9756 8215 c-8 -22 4 -37 22 -26 9 6 9 11 -1 25 -13 18 -14 18 -21 1z"/>
<path d="M9621 8184 c0 -11 3 -14 6 -6 3 7 2 16 -1 19 -3 4 -6 -2 -5 -13z"/>
<path d="M9610 8140 c0 -5 4 -10 9 -10 6 0 13 5 16 10 3 6 -1 10 -9 10 -9 0
-16 -4 -16 -10z"/>
<path d="M9655 8090 c3 -5 8 -10 11 -10 2 0 4 5 4 10 0 6 -5 10 -11 10 -5 0
-7 -4 -4 -10z"/>
<path d="M9581 8074 c0 -11 3 -14 6 -6 3 7 2 16 -1 19 -3 4 -6 -2 -5 -13z"/>
<path d="M6262 9547 c-12 -13 -30 -48 -41 -78 -27 -79 -92 -334 -102 -399 -7
-48 -8 -45 -4 26 2 44 8 91 13 105 14 37 25 148 13 128 -17 -26 -61 -208 -61
-249 0 -113 73 -193 148 -160 25 11 92 98 92 120 0 5 7 28 16 50 l16 41 23
-66 c39 -117 105 -156 164 -97 15 15 35 33 45 41 15 12 16 12 9 -5 -14 -40
-36 -64 -67 -74 l-31 -9 29 2 c20 1 38 14 59 40 53 65 49 154 -15 324 -11 30
-22 52 -25 50 -2 -3 7 -49 21 -104 13 -54 27 -115 30 -136 4 -33 3 -37 -9 -27
-8 7 -15 24 -15 39 0 14 -7 51 -14 81 -8 30 -26 101 -40 157 -30 120 -49 169
-78 200 -30 32 -55 29 -74 -9 l-17 -33 -15 33 c-18 38 -40 41 -70 9z m-116
-567 c15 -18 39 -32 61 -36 29 -6 33 -8 19 -16 -23 -13 -71 7 -96 40 -37 47
-22 58 16 12z"/>
<path d="M7437 9522 c-9 -21 -17 -44 -17 -50 0 -6 -12 -24 -26 -41 l-26 -31
34 6 c39 8 58 28 58 65 0 14 3 41 6 58 9 43 -9 39 -29 -7z"/>
<path d="M5220 9525 c0 -26 26 -79 49 -99 28 -25 27 -13 -4 32 -14 20 -25 44
-25 54 0 9 -4 20 -10 23 -5 3 -10 -1 -10 -10z"/>
<path d="M5080 9416 c0 -8 4 -17 9 -20 5 -4 7 3 4 14 -6 23 -13 26 -13 6z"/>
<path d="M5110 9404 c0 -65 204 -284 264 -284 16 0 18 2 7 9 -11 7 -9 10 10
14 20 4 19 4 -7 6 -56 2 -151 90 -239 221 -22 33 -35 45 -35 34z"/>
<path d="M5317 9409 c7 -7 15 -10 18 -7 3 3 -2 9 -12 12 -14 6 -15 5 -6 -5z"/>
<path d="M5620 9301 c-57 -8 -31 -21 40 -21 55 0 83 8 74 21 -6 10 -42 10
-114 0z"/>
<path d="M6960 9289 c36 -15 158 -15 172 -1 9 9 -12 12 -92 11 -80 0 -99 -3
-80 -10z"/>
<path d="M5670 9230 c-21 -7 -19 -8 16 -9 80 -2 205 -92 257 -184 15 -27 17
-28 12 -7 l-6 25 20 -24 c15 -16 21 -39 22 -75 1 -28 4 -39 6 -23 4 28 18 36
26 15 2 -7 2 -2 0 12 -2 14 -15 48 -29 76 -68 142 -214 229 -324 194z"/>
<path d="M7230 9159 c0 -5 9 -9 19 -9 11 0 23 -4 26 -10 10 -16 82 -12 89 5 4
12 2 13 -13 5 -13 -6 -35 -5 -70 4 -28 7 -51 9 -51 5z"/>
<path d="M6298 8958 c-24 -36 -39 -68 -33 -68 8 0 57 81 52 86 -2 3 -11 -6
-19 -18z"/>
<path d="M6403 8944 c18 -35 44 -60 54 -50 4 4 -10 23 -31 44 l-38 37 15 -31z"/>
<path d="M6016 8911 c-4 -5 -2 -12 3 -15 5 -4 12 -2 15 3 4 5 2 12 -3 15 -5 4
-12 2 -15 -3z"/>
<path d="M6500 8810 c0 -8 5 -22 10 -30 9 -13 10 -13 10 0 0 8 -5 22 -10 30
-9 13 -10 13 -10 0z"/>
<path d="M6520 8721 c0 -5 5 -13 10 -16 6 -3 10 -2 10 4 0 5 -4 13 -10 16 -5
3 -10 2 -10 -4z"/>
<path d="M7085 8640 c-3 -5 -1 -10 4 -10 6 0 11 5 11 10 0 6 -2 10 -4 10 -3 0
-8 -4 -11 -10z"/>
<path d="M6880 7820 c0 -5 5 -10 10 -10 6 0 10 5 10 10 0 6 -4 10 -10 10 -5 0
-10 -4 -10 -10z"/>
<path d="M6940 7781 c0 -17 18 -21 24 -6 3 9 0 15 -9 15 -8 0 -15 -4 -15 -9z"/>
<path d="M7117 7663 c-8 -7 18 -33 32 -33 6 0 11 3 11 8 0 10 -37 32 -43 25z"/>
<path d="M7340 7614 c0 -25 280 -308 292 -296 12 12 -87 133 -166 203 -73 64
-126 104 -126 93z"/>
<path d="M7205 7580 c3 -5 13 -10 21 -10 8 0 12 5 9 10 -3 6 -13 10 -21 10 -8
0 -12 -4 -9 -10z"/>
<path d="M7880 7169 c7 -11 14 -19 16 -16 7 7 -7 37 -17 37 -6 0 -5 -9 1 -21z"/>
<path d="M7730 7141 c0 -5 5 -13 10 -16 6 -3 10 -2 10 4 0 5 -4 13 -10 16 -5
3 -10 2 -10 -4z"/>
<path d="M5960 8000 c0 -5 5 -10 11 -10 5 0 7 5 4 10 -3 6 -8 10 -11 10 -2 0
-4 -4 -4 -10z"/>
<path d="M5005 7500 c-3 -5 -1 -10 4 -10 6 0 11 5 11 10 0 6 -2 10 -4 10 -3 0
-8 -4 -11 -10z"/>
<path d="M4468 7203 c7 -3 16 -2 19 1 4 3 -2 6 -13 5 -11 0 -14 -3 -6 -6z"/>
<path d="M4351 7163 c0 -6 -4 -20 -7 -30 -5 -14 -4 -15 5 -7 7 7 11 20 8 30
-3 11 -5 14 -6 7z"/>
<path d="M4768 6925 c-2 -25 0 -53 4 -63 8 -21 9 -20 13 51 4 67 -11 78 -17
12z"/>
<path d="M4760 6810 c0 -13 5 -18 15 -14 12 5 13 10 4 20 -15 19 -19 18 -19
-6z"/>
<path d="M4708 6717 c-28 -30 -37 -57 -19 -57 6 0 12 4 16 10 3 5 13 6 21 3
13 -5 15 -1 9 16 -5 16 -2 26 10 35 14 10 15 14 4 18 -8 2 -26 -9 -41 -25z"/>
<path d="M7768 6908 c5 -5 16 -8 23 -6 8 3 3 7 -10 11 -17 4 -21 3 -13 -5z"/>
</g>
</svg>
